<svg xmlns="http://www.w3.org/2000/svg" width="2171" height="483" viewBox="0 0 2171 483">
<g>
<path d="M 1796.00 388.00 L 1796.00 404.00 L 1898.00 404.00 L 1898.00 388.04 L 1856.50 387.50 L 1855.99 102.00 L 1858.75 102.02 C1861.48,102.03 1861.68,102.52 1882.91,161.27 C1904.45,220.86 1961.28,377.74 1967.40,394.50 L 1970.68 403.50 L 1980.69 403.78 L 1990.70 404.07 L 1996.78 387.28 C2000.12,378.05 2013.95,339.90 2027.52,302.50 C2081.25,154.31 2097.18,110.37 2099.21,104.75 C2099.98,102.61 2100.84,102.00 2103.10,102.00 L 2106.01 102.00 L 2105.50 387.50 L 2064.00 388.04 L 2064.00 404.00 L 2171.00 404.00 L 2171.00 483.00 L 0.00 483.00 L 0.00 0.00 L 2171.00 0.00 L 2171.00 83.00 L 2085.34 83.00 L 2069.71 126.25 C2061.11,150.04 2045.27,193.80 2034.50,223.50 C2023.74,253.20 2008.12,296.40 1999.79,319.50 C1991.46,342.60 1984.50,361.69 1984.32,361.92 C1983.62,362.83 1982.62,360.40 1974.10,336.89 C1960.27,298.75 1927.12,207.24 1903.69,142.50 L 1882.33 83.50 L 1839.12 83.24 L 1795.92 82.98 L 1796.21 91.24 L 1796.50 99.50 L 1810.37 100.00 L 1824.23 100.50 L 1828.09 104.85 C1830.21,107.24 1832.20,110.61 1832.51,112.35 C1832.82,114.08 1832.95,174.26 1832.79,246.08 L 1832.50 376.66 L 1829.62 380.44 C1825.07,386.39 1820.45,387.95 1807.25,387.98 ZM 205.50 471.84 C216.92,473.12 242.40,473.18 253.79,471.95 C297.32,467.22 340.27,449.34 374.50,421.71 C393.05,406.73 414.44,381.92 426.71,361.15 C504.45,229.55 434.76,60.25 287.28,22.43 C265.31,16.79 235.63,14.04 215.00,15.72 L 205.50 16.50 L 199.67 25.00 C191.25,37.28 179.12,62.33 173.73,78.53 C149.07,152.81 163.74,234.15 212.80,295.08 C220.69,304.88 242.51,326.01 252.34,333.38 C263.66,341.85 275.81,349.33 289.33,356.14 C298.95,360.98 300.95,362.36 300.02,363.47 C297.95,365.97 275.59,376.70 266.97,379.33 C241.66,387.05 216.02,386.77 191.34,378.51 C141.40,361.81 106.28,317.64 98.91,262.26 C97.30,250.15 98.30,226.08 100.92,213.88 C104.94,195.18 111.82,178.22 121.27,163.72 L 126.68 155.42 L 127.30 138.46 C127.65,129.13 128.41,118.64 129.00,115.15 C129.84,110.17 129.80,108.46 128.79,107.24 C126.98,105.04 76.07,80.00 73.42,80.00 C69.66,80.00 50.38,101.44 39.24,118.00 C-17.74,202.71 -10.19,317.69 57.37,393.85 C73.54,412.08 86.56,423.46 105.45,435.87 C134.34,454.85 170.63,467.90 205.50,471.84 ZM 1495.69 454.71 L 1500.22 461.06 L 1524.50 460.50 L 1524.79 452.26 L 1525.08 444.03 L 1515.29 434.19 C1509.91,428.78 1502.80,422.53 1499.50,420.31 C1480.30,407.38 1456.14,399.37 1423.18,394.99 C1418.61,394.38 1414.19,393.63 1413.37,393.31 C1412.48,392.97 1415.73,391.22 1421.31,389.02 C1439.49,381.87 1454.20,371.93 1467.56,357.76 C1491.11,332.78 1504.02,300.18 1507.10,257.91 C1509.69,222.41 1503.16,186.16 1489.15,158.30 C1468.58,117.39 1430.96,89.82 1385.70,82.50 C1317.46,71.47 1255.35,101.18 1226.78,158.52 C1208.47,195.26 1203.34,241.69 1212.53,287.60 C1226.20,355.93 1277.53,399.63 1351.50,405.90 C1358.10,406.46 1370.03,407.41 1378.00,408.02 C1439.05,412.62 1476.16,427.35 1495.69,454.71 ZM 1383.84 384.60 C1376.81,386.14 1349.53,387.39 1344.00,386.42 C1342.62,386.17 1338.80,385.51 1335.50,384.93 C1327.12,383.48 1314.77,379.46 1306.50,375.50 C1272.50,359.21 1249.78,326.95 1241.00,282.50 C1236.63,260.41 1237.16,222.14 1242.14,199.09 C1253.11,148.37 1282.55,115.46 1327.93,103.21 C1336.71,100.84 1339.19,100.62 1358.00,100.57 C1375.98,100.52 1379.57,100.79 1387.21,102.73 C1409.54,108.40 1423.52,116.29 1439.00,131.97 C1464.02,157.31 1476.27,190.23 1477.72,236.08 C1479.81,301.83 1457.18,350.64 1413.82,373.94 C1405.62,378.35 1394.79,382.20 1383.84,384.60 ZM 537.00 388.00 L 537.00 405.00 L 639.00 405.00 L 639.00 388.00 L 598.00 388.00 L 598.00 305.36 C598.00,237.63 598.24,222.52 599.34,221.61 C627.34,198.33 652.85,186.27 678.00,184.39 C706.19,182.29 719.93,193.09 722.98,219.76 C723.57,224.88 723.99,261.57 723.99,308.25 L 724.00 388.00 L 687.00 388.00 L 687.00 405.00 L 787.00 405.00 L 787.00 388.00 L 750.00 388.00 L 750.00 223.20 L 758.75 216.71 C770.64,207.90 783.03,199.98 791.79,195.59 C813.15,184.88 836.69,181.47 854.00,186.56 C861.67,188.82 869.74,197.06 873.08,206.05 L 875.48 212.50 L 875.77 300.25 L 876.06 388.00 L 835.00 388.00 L 835.00 405.02 L 934.50 404.50 L 934.50 388.50 L 923.45 388.00 C911.22,387.45 908.39,386.33 904.96,380.70 C903.07,377.60 903.01,374.99 903.00,294.00 C902.99,213.79 902.91,210.17 900.97,202.10 C895.97,181.22 883.76,168.98 863.44,164.45 C851.66,161.83 827.45,162.81 815.50,166.38 C797.16,171.87 778.23,182.81 759.00,199.06 C754.48,202.88 750.45,206.00 750.05,206.00 C749.65,206.00 748.76,203.52 748.08,200.48 C743.97,182.09 730.69,168.97 711.65,164.48 C702.43,162.31 679.69,162.56 668.85,164.96 C648.54,169.45 629.21,180.09 605.68,199.73 L 598.23 205.95 L 597.81 188.73 C597.48,174.90 597.06,170.86 595.68,168.25 L 593.95 165.00 L 535.00 165.00 L 535.00 181.80 L 548.30 182.15 C563.42,182.55 565.62,183.38 568.99,189.97 C570.96,193.84 571.00,195.70 571.00,285.51 C571.00,290.90 571.00,295.99 571.00,300.79 C571.02,372.38 571.02,379.73 567.34,383.39 C566.68,384.06 565.89,384.60 564.96,385.38 C561.97,387.90 561.37,388.00 549.42,388.00 ZM 1536.00 388.00 L 1536.00 404.00 L 1774.00 404.00 L 1774.00 315.00 L 1753.12 315.00 L 1752.59 319.25 C1752.02,323.84 1748.98,377.39 1748.99,382.75 L 1749.00 386.00 L 1601.00 386.00 L 1601.00 100.03 L 1626.25 99.77 L 1651.50 99.50 L 1651.79 91.25 L 1652.08 83.00 L 1536.15 83.00 L 1535.83 91.09 C1535.65,95.54 1535.69,99.36 1535.92,99.59 C1536.15,99.81 1542.09,100.00 1549.13,100.00 L 1561.93 100.00 L 1565.52 103.15 C1566.49,104.00 1567.31,104.52 1568.02,105.18 C1572.03,108.91 1572.03,116.96 1572.00,215.82 C1572.00,224.35 1572.00,233.56 1572.00,243.50 C1572.00,250.70 1572.00,257.52 1572.00,263.97 C1572.01,370.66 1572.01,377.78 1568.45,381.24 C1567.98,381.69 1567.45,382.08 1566.84,382.63 C1561.92,387.12 1558.66,388.00 1547.05,388.00 ZM 976.42 477.66 C976.81,478.66 979.59,479.00 987.58,479.00 L 998.23 479.00 L 1005.37 474.27 C1019.92,464.63 1037.37,445.52 1049.42,426.04 C1058.74,410.98 1064.28,398.80 1094.64,326.64 C1110.88,288.06 1127.01,249.75 1130.48,241.50 C1133.96,233.25 1139.16,220.88 1142.04,214.00 C1149.64,195.81 1152.36,190.81 1156.86,186.75 C1161.02,182.99 1163.65,182.17 1173.00,181.75 L 1178.50 181.50 L 1179.08 164.00 L 1091.92 164.00 L 1092.50 181.50 L 1105.50 182.06 C1112.65,182.36 1119.26,182.96 1120.19,183.39 C1124.67,185.45 1126.64,192.55 1124.61,199.29 C1122.71,205.60 1058.67,363.00 1058.01,362.98 C1057.98,362.98 1057.96,362.99 1057.94,362.99 C1057.93,362.99 1057.91,363.00 1057.90,363.00 C1057.47,363.05 1056.89,361.64 1036.26,312.42 L 1032.94 304.50 C1009.70,249.05 1006.88,242.32 992.59,208.30 C986.76,194.44 982.00,182.87 982.00,182.57 C982.00,182.28 990.66,181.92 1001.25,181.77 L 1020.50 181.50 L 1021.08 164.00 L 930.92 164.00 L 931.50 181.50 L 938.50 182.00 C946.97,182.61 951.19,184.83 955.93,191.20 C958.12,194.15 974.62,231.40 1001.74,294.66 L 1044.13 393.50 L 1040.98 399.70 C1026.98,427.29 1004.77,449.68 981.53,459.66 L 976.50 461.82 L 976.20 469.07 C976.04,473.05 976.14,476.92 976.42,477.66 ZM 357.39 282.06 C356.58,284.77 355.60,286.99 355.21,286.98 C354.82,286.97 350.23,285.23 345.00,283.12 C292.56,261.88 259.00,210.32 259.00,151.00 C259.00,137.54 261.43,118.26 263.97,111.59 C264.94,109.02 265.34,108.84 268.62,109.46 C272.67,110.22 283.52,114.91 292.50,119.77 C319.86,134.61 344.47,165.52 354.80,198.00 C359.76,213.58 361.08,221.48 361.69,239.00 C362.27,256.06 360.84,270.44 357.39,282.06 ZM 2171.00 100.00 L 2171.00 388.16 L 2158.59 387.83 C2146.46,387.51 2146.09,387.43 2142.34,384.44 C2141.21,383.54 2140.26,383.01 2139.46,382.32 C2134.78,378.26 2135.15,368.37 2134.55,243.50 L 2133.91 112.50 L 2136.22 108.53 C2137.49,106.35 2140.05,103.53 2141.91,102.28 C2145.00,100.20 2146.43,100.00 2158.15,100.00 L 2171.00 100.00 ZM 234.57 468.88 C234.36,468.93 234.15,468.98 233.95,469.03 C231.85,469.57 230.72,469.85 229.60,469.82 C228.19,469.77 226.80,469.22 223.50,468.00 L 218.50 466.15 L 229.31 466.08 C240.51,466.00 242.28,466.94 234.57,468.88 Z" fill="rgb(18,68,154)"/>
<path d="M 137.75 344.70 C136.58,343.53 135.39,342.33 134.19,341.09 C129.62,336.36 126.13,333.02 126.44,333.66 C127.35,335.53 125.94,338.00 123.95,338.00 C122.94,338.00 121.87,338.40 121.57,338.88 C121.27,339.36 120.01,340.00 118.76,340.28 C108.70,342.59 104.07,344.47 99.99,347.91 C97.51,350.00 94.54,352.01 93.38,352.38 C92.22,352.75 89.03,355.23 86.29,357.91 C83.54,360.58 80.42,363.05 79.35,363.39 C78.29,363.73 75.18,366.03 72.46,368.50 C69.73,370.97 66.88,372.99 66.13,373.00 C65.38,373.00 62.85,374.99 60.51,377.43 C57.42,380.66 55.97,381.57 55.17,380.77 C54.37,379.97 53.89,380.12 53.43,381.33 C53.08,382.24 52.48,382.80 52.10,382.56 C51.72,382.33 51.43,383.22 51.45,384.54 C51.48,386.06 54.23,390.07 58.46,395.08 C58.10,394.67 57.73,394.26 57.37,393.85 C-10.19,317.69 -17.74,202.71 39.24,118.00 C50.38,101.44 69.66,80.00 73.42,80.00 C76.07,80.00 126.98,105.04 128.79,107.24 C129.80,108.46 129.84,110.17 129.00,115.15 C128.41,118.64 127.65,129.13 127.30,138.46 L 126.68 155.42 L 121.27 163.72 C111.82,178.22 104.94,195.18 100.92,213.88 C98.30,226.08 97.30,250.15 98.91,262.26 C103.22,294.66 117.03,323.22 137.75,344.70 ZM 1423.18 394.99 C1426.55,395.44 1429.82,395.92 1433.00,396.44 C1429.02,395.82 1424.94,395.27 1420.75,394.80 C1414.84,394.14 1410.00,393.24 1410.00,392.80 C1410.00,392.36 1410.91,392.00 1412.01,392.00 C1412.90,392.00 1416.12,391.01 1419.78,389.64 C1415.15,391.54 1412.57,393.00 1413.37,393.31 C1414.19,393.63 1418.61,394.38 1423.18,394.99 ZM 238.58 467.61 C240.80,466.53 237.70,466.02 229.31,466.08 L 218.50 466.15 L 228.00 466.06 C233.23,466.01 238.51,465.70 239.75,465.37 C240.99,465.04 242.00,465.21 242.00,465.75 C242.00,466.15 240.59,466.89 238.58,467.61 ZM 152.77 358.08 C164.24,366.85 177.20,373.78 191.34,378.51 C176.52,373.56 164.63,367.38 152.77,358.08 ZM 77.20 414.20 C95.49,430.61 116.51,444.03 139.08,453.90 C127.18,448.76 115.84,442.70 105.45,435.87 C94.69,428.80 85.82,422.06 77.20,414.20 ZM 1507.64 245.32 C1507.77,226.47 1505.49,207.42 1500.84,189.51 C1500.80,189.34 1500.75,189.16 1500.71,188.99 C1505.49,206.68 1507.89,225.95 1507.64,245.32 ZM 1473.36 351.19 C1483.53,338.76 1491.64,324.20 1497.39,307.88 C1491.74,324.25 1483.76,338.61 1473.36,351.19 ZM 1491.07 162.27 C1481.87,142.62 1468.84,125.80 1452.86,112.61 C1467.73,124.86 1480.09,140.29 1489.15,158.30 C1489.81,159.61 1490.45,160.93 1491.07,162.27 ZM 1456.16 368.54 C1449.33,374.27 1442.05,379.12 1434.09,383.24 C1442.01,379.10 1449.38,374.18 1456.16,368.54 Z" fill="rgb(128,132,139)"/>
<path d="M 205.50 471.84 C183.17,469.31 160.26,463.06 139.08,453.90 C116.51,444.03 95.49,430.61 77.20,414.20 C71.04,408.58 64.99,402.38 58.46,395.08 C54.23,390.07 51.48,386.06 51.45,384.54 C51.43,383.22 51.72,382.33 52.10,382.56 C52.48,382.80 53.08,382.24 53.43,381.33 C53.89,380.12 54.37,379.97 55.17,380.77 C55.97,381.57 57.42,380.66 60.51,377.43 C62.85,374.99 65.38,373.00 66.13,373.00 C66.88,372.99 69.73,370.97 72.46,368.50 C75.18,366.03 78.29,363.73 79.35,363.39 C80.42,363.05 83.54,360.58 86.29,357.91 C89.03,355.23 92.22,352.75 93.38,352.38 C94.54,352.01 97.51,350.00 99.99,347.91 C104.07,344.47 108.70,342.59 118.76,340.28 C120.01,340.00 121.27,339.36 121.57,338.88 C121.87,338.40 122.94,338.00 123.95,338.00 C125.94,338.00 127.35,335.53 126.44,333.66 C126.13,333.02 129.62,336.36 134.19,341.09 C135.39,342.33 136.58,343.53 137.75,344.70 C142.42,349.53 147.44,354.01 152.77,358.09 C164.63,367.38 176.52,373.56 191.34,378.51 C216.02,386.77 241.66,387.05 266.97,379.33 C275.59,376.70 297.95,365.97 300.02,363.47 C300.95,362.36 298.95,360.98 289.33,356.14 C285.70,354.31 282.17,352.44 278.73,350.50 C282.19,352.43 285.73,354.29 289.36,356.09 L 301.21 361.97 L 305.84 358.74 C308.38,356.96 314.99,351.00 320.52,345.50 C331.67,334.42 340.44,322.04 349.55,304.50 C354.70,294.60 356.06,291.79 357.66,291.65 C358.28,291.59 358.94,291.94 359.86,292.43 C360.00,292.50 360.14,292.57 360.29,292.65 C364.33,294.74 374.00,303.91 374.00,305.65 C374.00,306.39 374.11,307.00 374.25,307.00 C374.39,307.00 377.66,308.16 381.50,309.57 C385.35,310.99 391.42,313.06 395.00,314.17 C398.58,315.29 402.21,316.83 403.08,317.60 C403.94,318.37 406.79,319.40 409.41,319.88 C412.03,320.37 414.68,321.28 415.29,321.89 C415.90,322.50 417.23,323.00 418.25,323.00 C419.93,323.00 425.76,325.26 431.74,328.22 C433.32,329.00 434.66,329.02 436.28,328.28 C438.23,327.40 438.57,327.52 438.57,329.12 C438.57,330.15 438.29,331.00 437.95,331.00 C437.61,331.00 437.45,332.01 437.58,333.25 C437.72,334.49 437.87,335.84 437.92,336.25 C437.96,336.66 438.45,337.00 439.00,337.00 C439.06,337.00 439.12,337.00 439.17,336.99 C435.54,345.15 431.39,353.22 426.71,361.15 C414.44,381.92 393.05,406.73 374.50,421.71 C340.27,449.34 297.32,467.22 253.79,471.95 C242.40,473.18 216.92,473.12 205.50,471.84 ZM 234.57 468.88 C236.50,468.39 237.84,467.97 238.58,467.61 C240.59,466.89 242.00,466.15 242.00,465.75 C242.00,465.21 240.99,465.04 239.75,465.37 C238.51,465.70 233.23,466.01 228.00,466.06 L 218.50 466.15 L 223.50 468.00 C226.80,469.22 228.19,469.77 229.60,469.82 C230.72,469.85 231.85,469.57 233.95,469.03 C234.15,468.98 234.36,468.93 234.57,468.88 ZM 447.90 314.17 C449.19,310.00 450.44,305.63 451.50,301.50 C457.40,278.54 459.64,255.52 458.58,233.06 C459.92,259.95 456.53,287.40 447.90,314.17 ZM 439.94 335.24 C440.10,334.73 440.37,334.10 440.69,333.49 C440.45,334.07 440.19,334.66 439.94,335.24 Z" fill="rgb(194,196,198)"/>
<path d="M 976.42 477.66 C976.14,476.92 976.04,473.05 976.20,469.07 L 976.50 461.82 L 981.53 459.66 C1004.77,449.68 1026.98,427.29 1040.98,399.70 L 1044.13 393.50 L 1001.74 294.66 C974.62,231.40 958.12,194.15 955.93,191.20 C951.19,184.83 946.97,182.61 938.50,182.00 L 931.50 181.50 L 931.21 172.75 L 930.92 164.00 L 976.00 164.00 L 1021.08 164.00 L 1020.79 172.75 L 1020.50 181.50 L 1001.25 181.77 C990.66,181.92 982.00,182.28 982.00,182.57 C982.00,182.87 986.76,194.44 992.59,208.30 C1006.88,242.32 1009.70,249.05 1032.94,304.50 C1058.65,365.84 1057.41,362.96 1058.01,362.98 C1058.67,363.00 1122.71,205.60 1124.61,199.29 C1126.64,192.55 1124.67,185.45 1120.19,183.39 C1119.26,182.96 1112.65,182.36 1105.50,182.06 L 1092.50 181.50 L 1092.21 172.75 L 1091.92 164.00 L 1135.50 164.00 L 1179.08 164.00 L 1178.79 172.75 L 1178.50 181.50 L 1173.00 181.75 C1163.65,182.17 1161.02,182.99 1156.86,186.75 C1152.36,190.81 1149.64,195.81 1142.04,214.00 C1139.16,220.88 1133.96,233.25 1130.48,241.50 C1127.01,249.75 1110.88,288.06 1094.64,326.64 C1064.28,398.80 1058.74,410.98 1049.42,426.04 C1037.37,445.52 1019.92,464.63 1005.37,474.27 L 998.23 479.00 L 987.58 479.00 C979.59,479.00 976.81,478.66 976.42,477.66 ZM 1495.69 454.71 C1476.16,427.35 1439.05,412.62 1378.00,408.02 C1370.03,407.41 1358.10,406.46 1351.50,405.90 C1277.53,399.63 1226.20,355.93 1212.53,287.60 C1203.34,241.69 1208.47,195.26 1226.78,158.52 C1255.35,101.18 1317.46,71.47 1385.70,82.50 C1442.39,91.67 1485.98,132.18 1500.84,189.51 C1508.68,219.75 1509.79,253.26 1503.95,283.53 C1494.26,333.72 1465.04,371.43 1422.56,388.56 C1417.87,390.45 1413.12,392.00 1412.01,392.00 C1410.91,392.00 1410.00,392.36 1410.00,392.80 C1410.00,393.24 1414.84,394.14 1420.75,394.80 C1453.36,398.44 1479.69,406.97 1499.50,420.31 C1502.80,422.53 1509.91,428.78 1515.29,434.19 L 1525.08 444.03 L 1524.79 452.26 L 1524.50 460.50 L 1512.36 460.78 L 1500.22 461.06 L 1495.69 454.71 ZM 1383.84 384.60 C1394.79,382.20 1405.62,378.35 1413.82,373.94 C1457.18,350.64 1479.81,301.83 1477.72,236.08 C1476.27,190.23 1464.02,157.31 1439.00,131.97 C1423.52,116.29 1409.54,108.40 1387.21,102.73 C1379.57,100.79 1375.98,100.52 1358.00,100.57 C1339.19,100.62 1336.71,100.84 1327.93,103.21 C1282.55,115.46 1253.11,148.37 1242.14,199.09 C1237.16,222.14 1236.63,260.41 1241.00,282.50 C1249.78,326.95 1272.50,359.21 1306.50,375.50 C1314.77,379.46 1327.12,383.48 1335.50,384.93 C1338.80,385.51 1342.62,386.17 1344.00,386.42 C1349.53,387.39 1376.81,386.14 1383.84,384.60 ZM 537.00 396.50 L 537.00 388.00 L 549.42 388.00 C561.37,388.00 561.97,387.90 564.96,385.38 C571.36,379.99 571.00,385.98 571.00,285.51 C571.00,195.70 570.96,193.84 568.99,189.97 C565.62,183.38 563.42,182.55 548.30,182.15 L 535.00 181.80 L 535.00 173.40 L 535.00 165.00 L 564.47 165.00 L 593.95 165.00 L 595.68 168.25 C597.06,170.86 597.48,174.90 597.81,188.73 L 598.23 205.95 L 605.68 199.73 C629.21,180.09 648.54,169.45 668.85,164.96 C679.69,162.56 702.43,162.31 711.65,164.48 C730.69,168.97 743.97,182.09 748.08,200.48 C748.76,203.52 749.65,206.00 750.05,206.00 C750.45,206.00 754.48,202.88 759.00,199.06 C778.23,182.81 797.16,171.87 815.50,166.38 C827.45,162.81 851.66,161.83 863.44,164.45 C883.76,168.98 895.97,181.22 900.97,202.10 C902.91,210.17 902.99,213.79 903.00,294.00 C903.01,374.99 903.07,377.60 904.96,380.70 C908.39,386.33 911.22,387.45 923.45,388.00 L 934.50 388.50 L 934.50 396.50 L 934.50 404.50 L 884.75 404.76 L 835.00 405.02 L 835.00 396.51 L 835.00 388.00 L 855.53 388.00 L 876.06 388.00 L 875.77 300.25 L 875.48 212.50 L 873.08 206.05 C869.74,197.06 861.67,188.82 854.00,186.56 C836.69,181.47 813.15,184.88 791.79,195.59 C783.03,199.98 770.64,207.90 758.75,216.71 L 750.00 223.20 L 750.00 305.60 L 750.00 388.00 L 768.50 388.00 L 787.00 388.00 L 787.00 396.50 L 787.00 405.00 L 737.00 405.00 L 687.00 405.00 L 687.00 396.50 L 687.00 388.00 L 705.50 388.00 L 724.00 388.00 L 723.99 308.25 C723.99,261.57 723.57,224.88 722.98,219.76 C719.93,193.09 706.19,182.29 678.00,184.39 C652.85,186.27 627.34,198.33 599.34,221.61 C598.24,222.52 598.00,237.63 598.00,305.36 L 598.00 388.00 L 618.50 388.00 L 639.00 388.00 L 639.00 396.50 L 639.00 405.00 L 588.00 405.00 L 537.00 405.00 L 537.00 396.50 ZM 1536.00 396.00 L 1536.00 388.00 L 1547.05 388.00 C1558.66,388.00 1561.92,387.12 1566.84,382.63 C1572.29,377.68 1572.00,385.51 1572.00,243.50 C1572.00,98.23 1572.51,109.29 1565.52,103.15 L 1561.93 100.00 L 1549.13 100.00 C1542.09,100.00 1536.15,99.81 1535.92,99.59 C1535.69,99.36 1535.65,95.54 1535.83,91.09 L 1536.15 83.00 L 1594.12 83.00 L 1652.08 83.00 L 1651.79 91.25 L 1651.50 99.50 L 1626.25 99.77 L 1601.00 100.03 L 1601.00 243.02 L 1601.00 386.00 L 1675.00 386.00 L 1749.00 386.00 L 1748.99 382.75 C1748.98,377.39 1752.02,323.84 1752.59,319.25 L 1753.12 315.00 L 1763.56 315.00 L 1774.00 315.00 L 1774.00 359.50 L 1774.00 404.00 L 1655.00 404.00 L 1536.00 404.00 L 1536.00 396.00 ZM 1796.00 396.00 L 1796.00 388.00 L 1807.25 387.98 C1820.45,387.95 1825.07,386.39 1829.62,380.44 L 1832.50 376.66 L 1832.79 246.08 C1832.95,174.26 1832.82,114.08 1832.51,112.35 C1832.20,110.61 1830.21,107.24 1828.09,104.85 L 1824.23 100.50 L 1810.37 100.00 L 1796.50 99.50 L 1796.21 91.24 L 1795.92 82.98 L 1839.12 83.24 L 1882.33 83.50 L 1903.69 142.50 C1927.12,207.24 1960.27,298.75 1974.10,336.89 C1982.62,360.40 1983.62,362.83 1984.32,361.92 C1984.50,361.69 1991.46,342.60 1999.79,319.50 C2008.12,296.40 2023.74,253.20 2034.50,223.50 C2045.27,193.80 2061.11,150.04 2069.71,126.25 L 2085.34 83.00 L 2128.17 83.00 L 2171.00 83.00 L 2171.00 91.50 L 2171.00 100.00 L 2158.15 100.00 C2146.43,100.00 2145.00,100.20 2141.91,102.28 C2140.05,103.53 2137.49,106.35 2136.22,108.53 L 2133.91 112.50 L 2134.55 243.50 C2135.26,389.73 2134.63,378.28 2142.34,384.44 C2146.09,387.43 2146.46,387.51 2158.59,387.83 L 2171.00 388.16 L 2171.00 396.08 L 2171.00 404.00 L 2117.50 404.00 L 2064.00 404.00 L 2064.00 396.02 L 2064.00 388.04 L 2084.75 387.77 L 2105.50 387.50 L 2105.75 244.75 L 2106.01 102.00 L 2103.10 102.00 C2100.84,102.00 2099.98,102.61 2099.21,104.75 C2097.18,110.37 2081.25,154.31 2027.52,302.50 C2013.95,339.90 2000.12,378.05 1996.78,387.28 L 1990.70 404.07 L 1980.69 403.78 L 1970.68 403.50 L 1967.40 394.50 C1961.28,377.74 1904.45,220.86 1882.91,161.27 C1861.68,102.52 1861.48,102.03 1858.75,102.02 L 1855.99 102.00 L 1856.25 244.75 L 1856.50 387.50 L 1877.25 387.77 L 1898.00 388.04 L 1898.00 396.02 L 1898.00 404.00 L 1847.00 404.00 L 1796.00 404.00 L 1796.00 396.00 ZM 289.36 356.09 C276.04,349.49 263.96,342.08 252.34,333.38 C242.51,326.01 220.69,304.88 212.80,295.08 C163.74,234.15 149.07,152.81 173.73,78.53 C179.12,62.33 191.25,37.28 199.67,25.00 L 205.50 16.50 L 215.00 15.72 C235.63,14.04 265.31,16.79 287.28,22.43 C409.69,53.82 483.10,178.58 451.50,301.50 C448.29,314.02 443.33,328.74 440.79,333.31 C440.12,334.51 439.67,335.84 439.79,336.25 C439.90,336.66 439.55,337.00 439.00,337.00 C438.45,337.00 437.96,336.66 437.92,336.25 C437.87,335.84 437.72,334.49 437.58,333.25 C437.45,332.01 437.61,331.00 437.95,331.00 C438.29,331.00 438.57,330.15 438.57,329.12 C438.57,327.52 438.23,327.40 436.28,328.28 C434.66,329.02 433.32,329.00 431.74,328.22 C425.76,325.26 419.93,323.00 418.25,323.00 C417.23,323.00 415.90,322.50 415.29,321.89 C414.68,321.28 412.03,320.37 409.41,319.88 C406.79,319.40 403.94,318.37 403.08,317.60 C402.21,316.83 398.58,315.29 395.00,314.17 C391.42,313.06 385.35,310.99 381.50,309.57 C377.66,308.16 374.39,307.00 374.25,307.00 C374.11,307.00 374.00,306.39 374.00,305.65 C374.00,303.91 364.33,294.74 360.29,292.65 C356.52,290.70 356.99,290.19 349.55,304.50 C340.44,322.04 331.67,334.42 320.52,345.50 C314.99,351.00 308.38,356.96 305.84,358.74 L 301.21 361.97 L 289.36 356.09 ZM 357.39 282.06 C360.84,270.44 362.27,256.06 361.69,239.00 C361.08,221.48 359.76,213.58 354.80,198.00 C344.47,165.52 319.86,134.61 292.50,119.77 C283.52,114.91 272.67,110.22 268.62,109.46 C265.34,108.84 264.94,109.02 263.97,111.59 C261.43,118.26 259.00,137.54 259.00,151.00 C259.00,210.32 292.56,261.88 345.00,283.12 C350.23,285.23 354.82,286.97 355.21,286.98 C355.60,286.99 356.58,284.77 357.39,282.06 Z" fill="rgb(252,252,252)"/>
</g>
</svg>