<svg xmlns="http://www.w3.org/2000/svg" width="516" height="254" viewBox="0 0 516 254">
<g>
<path d="M 285.00 229.38 C278.97,231.69 268.79,232.22 261.72,230.59 C258.53,229.86 255.62,228.96 255.24,228.58 C254.28,227.62 257.06,226.03 259.73,226.02 C264.52,225.98 307.00,205.46 307.00,203.18 C307.00,202.19 306.33,201.96 304.75,202.42 C302.31,203.12 278.60,205.21 273.15,205.20 C270.09,205.19 267.01,203.63 268.07,202.62 C268.30,202.39 274.18,201.69 281.13,201.06 C301.37,199.25 304.18,197.87 303.40,190.15 C303.14,187.59 302.70,184.15 302.43,182.50 C301.50,176.95 294.67,171.00 286.28,168.46 C277.77,165.88 271.59,158.63 259.04,136.50 C239.78,102.50 230.10,95.88 221.74,111.00 C218.69,116.52 216.55,123.29 214.95,132.50 C212.00,149.52 196.95,172.19 187.21,174.28 C185.23,174.70 182.79,175.78 181.81,176.67 C180.16,178.17 179.13,178.17 168.66,176.67 C153.33,174.48 150.76,173.48 158.63,172.77 C165.90,172.11 170.91,169.68 177.80,163.49 C187.67,154.61 188.87,150.88 182.33,149.33 C179.62,148.69 178.25,147.51 176.42,144.25 C172.30,136.93 171.60,132.14 172.91,120.50 C174.96,102.25 181.23,88.32 187.82,87.35 C189.67,87.08 192.00,84.26 192.00,82.31 C192.00,81.59 192.45,81.00 193.00,81.00 C193.55,81.00 194.00,80.21 194.00,79.25 C194.00,77.16 200.96,53.85 204.05,45.60 C205.25,42.40 207.56,38.37 209.18,36.64 C211.62,34.05 211.88,33.93 210.68,36.00 C209.87,37.38 209.40,39.57 209.62,40.88 C209.84,42.19 209.46,43.95 208.76,44.78 C207.80,45.94 207.55,52.77 207.72,73.40 C208.05,113.84 208.37,118.69 210.39,113.44 C210.72,112.58 211.43,112.15 211.98,112.49 C212.53,112.83 212.75,112.52 212.48,111.80 C212.20,111.09 213.02,109.38 214.29,108.00 C215.56,106.62 218.57,101.90 220.98,97.50 C223.39,93.10 227.00,87.93 228.99,86.00 C233.49,81.65 234.42,79.27 237.05,65.50 C243.69,30.76 247.27,16.62 250.48,12.48 C251.94,10.60 251.98,10.65 251.37,13.50 C248.93,24.98 248.93,84.87 251.38,97.95 C252.99,106.59 255.41,109.55 259.56,107.98 C260.90,107.47 265.68,103.33 270.17,98.77 C278.32,90.51 278.33,90.49 281.66,79.63 C283.50,73.65 285.00,68.14 285.00,67.38 C285.00,66.62 285.45,66.00 286.00,66.00 C286.55,66.00 287.00,65.44 287.01,64.75 C287.04,60.68 295.62,47.00 298.14,47.00 C298.56,47.00 297.86,48.13 296.58,49.51 C293.78,52.53 293.83,51.92 293.67,80.00 C293.41,123.69 297.34,131.06 315.61,121.10 C319.52,118.96 324.13,116.91 325.86,116.53 C328.60,115.93 332.59,112.26 331.59,111.26 C331.39,111.06 329.94,110.75 328.37,110.56 C326.79,110.38 325.20,110.18 324.84,110.11 C324.22,110.01 320.00,98.46 320.00,96.85 C320.00,96.43 325.96,96.32 333.25,96.60 L 346.50 97.11 L 351.00 87.95 C354.45,80.92 356.32,78.30 359.00,76.70 C362.29,74.73 362.40,74.72 360.86,76.55 C359.44,78.23 359.27,80.66 359.66,94.24 C359.68,94.82 359.70,95.39 359.71,95.93 C359.98,105.30 360.09,108.79 358.87,109.33 C358.15,109.66 356.96,108.94 355.07,107.79 C354.89,107.68 354.70,107.56 354.50,107.44 C350.82,105.23 347.25,104.89 345.54,106.60 C340.34,111.80 338.18,123.61 340.17,136.00 C341.65,145.22 343.40,147.91 349.94,150.97 C354.61,153.16 355.46,153.26 359.78,152.15 C363.91,151.10 365.24,151.19 370.16,152.88 C378.07,155.60 379.96,156.77 381.02,159.56 C382.20,162.66 383.17,162.62 392.68,159.14 C396.98,157.57 402.24,155.96 404.37,155.57 L 408.23 154.87 L 407.58 150.68 C405.56,137.67 395.45,123.47 386.58,121.17 C383.88,120.47 383.29,119.53 380.62,111.70 C378.99,106.92 377.87,102.79 378.13,102.53 C379.45,101.22 431.07,118.85 436.68,122.53 C437.99,123.38 439.61,123.77 440.28,123.38 C440.95,123.00 441.16,123.05 440.75,123.50 C440.35,123.95 444.02,126.73 448.93,129.67 C459.30,135.89 466.43,143.17 465.32,146.41 C464.92,147.56 464.64,149.50 464.69,150.72 C464.80,153.40 464.28,153.57 451.18,155.11 C438.87,156.56 438.62,156.72 424.60,172.47 C410.25,188.57 406.54,190.69 399.72,186.67 C395.69,184.29 392.14,180.18 385.11,169.75 C383.34,167.14 381.73,165.00 381.52,165.00 C381.31,165.00 378.52,166.73 375.32,168.84 C356.69,181.12 352.32,183.68 337.50,191.01 C328.94,195.25 325.91,197.48 316.50,206.49 C305.04,217.47 292.70,226.43 285.00,229.38 ZM 112.00 174.89 C104.36,179.48 100.18,177.63 81.38,161.38 L 74.27 155.23 L 78.38 155.73 C80.65,156.00 87.45,157.07 93.50,158.09 L 104.50 159.96 L 107.35 156.73 C110.85,152.77 114.88,144.10 119.50,130.57 C123.54,118.75 123.71,116.68 121.04,112.29 C119.14,109.18 118.92,109.10 113.79,109.67 C106.70,110.46 108.07,109.23 120.50,103.66 C129.81,99.49 130.72,98.82 133.72,93.94 C137.21,88.25 140.84,84.00 142.21,84.00 C142.69,84.00 142.16,84.98 141.04,86.19 C139.92,87.39 138.97,88.63 138.92,88.94 C138.88,89.25 138.68,90.18 138.48,91.00 C137.18,96.36 136.84,98.27 136.03,105.00 C134.06,121.45 128.99,148.63 126.88,154.10 C126.33,155.54 124.12,158.01 121.96,159.60 C119.81,161.20 118.19,162.95 118.35,163.50 C118.52,164.05 120.42,165.53 122.58,166.78 C125.95,168.74 126.11,168.97 123.68,168.40 C121.49,167.90 120.28,168.31 118.18,170.27 C116.71,171.66 113.93,173.74 112.00,174.89 ZM 190.27 242.00 C188.87,243.10 187.45,243.99 187.12,243.98 C185.01,243.93 179.66,239.16 177.23,235.18 C174.50,230.69 166.00,212.04 166.00,210.54 C166.00,210.14 163.71,204.41 160.92,197.82 C158.13,191.22 156.04,185.62 156.29,185.38 C156.95,184.72 178.19,195.81 180.35,197.93 C181.71,199.28 182.56,202.64 183.54,210.63 C184.28,216.61 185.18,222.62 185.54,224.00 C185.91,225.38 186.64,228.21 187.16,230.31 C188.00,233.67 188.43,234.09 190.80,233.81 C192.75,233.59 194.39,232.13 196.79,228.50 C199.62,224.23 200.00,223.94 199.40,226.50 C198.36,230.92 193.18,239.71 190.27,242.00 ZM 71.01 154.03 C72.07,154.70 71.18,154.97 67.92,154.98 C65.40,154.99 63.15,154.82 62.92,154.60 C62.69,154.38 51.92,153.02 39.00,151.56 C13.92,148.75 4.76,147.11 5.08,145.50 C5.19,144.95 10.28,143.06 16.39,141.30 C22.50,139.54 36.92,134.94 48.43,131.07 C59.94,127.20 69.52,124.19 69.72,124.39 C69.92,124.59 68.38,125.61 66.29,126.65 C55.94,131.86 53.02,134.17 50.98,138.79 C49.85,141.32 49.16,143.96 49.42,144.66 C50.11,146.44 58.57,150.51 64.51,151.90 C67.26,152.55 70.19,153.51 71.01,154.03 ZM 162.57 100.79 C162.18,102.01 161.25,103.00 160.49,103.00 C159.11,103.00 156.00,99.32 156.00,97.68 C156.00,97.20 155.07,95.50 153.93,93.90 L 151.86 90.99 L 157.72 83.77 C163.72,76.37 171.05,70.00 173.56,70.00 C174.34,70.00 173.36,71.47 171.40,73.27 C168.14,76.26 167.63,77.51 165.55,87.56 C164.29,93.62 162.95,99.58 162.57,100.79 ZM 263.50 204.50 C261.22,205.28 252.29,205.54 249.50,204.91 C247.85,204.54 247.09,204.18 247.81,204.12 C248.53,204.05 248.84,203.55 248.50,203.00 C248.10,202.36 251.37,202.06 257.69,202.17 C266.73,202.32 267.03,202.39 261.50,203.00 C255.66,203.65 255.62,203.67 260.00,203.91 C262.48,204.05 264.05,204.31 263.50,204.50 ZM 507.43 146.11 C506.70,147.30 502.00,147.25 502.00,146.06 C502.00,145.54 502.37,144.89 502.83,144.61 C504.10,143.82 508.05,145.11 507.43,146.11 ZM 240.00 202.00 C241.14,202.74 240.72,202.97 238.25,202.98 C236.46,202.99 235.00,202.55 235.00,202.00 C235.00,200.73 238.03,200.73 240.00,202.00 Z" fill="rgb(77,94,170)"/>
<path d="M 162.57 100.79 C162.89,99.76 163.90,95.35 164.96,90.35 C164.39,93.84 164.16,96.49 164.44,96.77 C164.80,97.14 167.83,97.70 171.16,98.02 C176.73,98.55 177.34,98.41 178.86,96.21 C179.34,95.52 179.83,94.84 180.31,94.19 C176.89,100.16 174.14,109.55 172.91,120.50 C171.60,132.14 172.30,136.93 176.42,144.25 C178.25,147.51 179.62,148.69 182.33,149.33 C188.87,150.88 187.67,154.61 177.80,163.49 C170.91,169.68 165.90,172.11 158.63,172.77 C150.76,173.48 153.33,174.48 168.66,176.67 C179.13,178.17 180.16,178.17 181.81,176.67 C182.79,175.78 185.23,174.70 187.21,174.28 C196.67,172.24 211.16,150.78 214.68,133.95 C213.90,138.00 213.55,140.13 214.44,141.40 C215.48,142.89 218.23,143.17 224.00,143.96 C234.09,145.33 242.89,145.12 245.45,143.44 C247.00,142.43 249.52,141.99 252.66,142.19 L 257.50 142.50 L 257.80 138.49 C257.98,135.93 257.55,134.11 255.31,130.05 C256.51,132.08 257.76,134.23 259.04,136.50 C271.59,158.63 277.77,165.88 286.28,168.46 C294.67,171.00 301.50,176.95 302.43,182.50 C302.70,184.15 303.14,187.59 303.40,190.15 C304.18,197.87 301.37,199.25 281.13,201.06 C274.18,201.69 268.30,202.39 268.07,202.62 C267.01,203.63 270.09,205.19 273.15,205.20 C278.60,205.21 302.31,203.12 304.75,202.42 C306.33,201.96 307.00,202.19 307.00,203.18 C307.00,205.46 264.52,225.98 259.73,226.02 C257.06,226.03 254.28,227.62 255.24,228.58 C255.52,228.86 257.18,229.42 259.30,229.99 C255.76,229.41 254.02,229.49 252.52,230.17 C250.41,231.13 248.66,230.73 240.77,227.47 C235.67,225.36 225.93,220.98 219.13,217.74 C212.33,214.49 206.44,212.21 206.05,212.67 C205.66,213.13 203.83,217.10 201.98,221.50 C200.68,224.60 199.41,227.40 198.21,229.87 C198.75,228.62 199.17,227.46 199.40,226.50 C200.00,223.94 199.62,224.23 196.79,228.50 C194.39,232.13 192.75,233.59 190.80,233.81 C188.43,234.09 188.00,233.67 187.16,230.31 C186.64,228.21 185.91,225.38 185.54,224.00 C185.18,222.62 184.28,216.61 183.54,210.63 C182.56,202.64 181.71,199.28 180.35,197.93 C178.19,195.81 156.95,184.72 156.29,185.38 C156.04,185.62 158.13,191.22 160.92,197.82 C163.71,204.41 166.00,210.14 166.00,210.54 C166.00,210.56 166.00,210.59 166.01,210.62 C165.37,208.98 164.71,207.28 164.04,205.50 C162.37,201.10 159.51,194.57 157.68,191.00 C154.00,183.82 153.08,183.17 131.28,172.58 L 122.29 168.21 C122.72,168.22 123.17,168.28 123.68,168.40 C126.11,168.97 125.95,168.74 122.58,166.78 C120.42,165.53 118.52,164.05 118.35,163.50 C118.19,162.95 119.81,161.20 121.96,159.60 C124.12,158.01 126.33,155.54 126.88,154.10 C128.74,149.28 132.89,127.61 135.21,111.28 C134.89,113.75 134.60,116.09 134.41,117.60 C133.87,121.85 134.04,122.80 135.46,123.34 C138.34,124.45 159.32,120.23 160.79,118.25 C162.71,115.66 161.34,106.30 158.40,101.95 C158.20,101.65 158.00,101.35 157.81,101.05 C158.74,102.13 159.82,103.00 160.49,103.00 C161.25,103.00 162.18,102.01 162.57,100.79 ZM 71.01 154.03 C70.19,153.51 67.26,152.55 64.51,151.90 C58.57,150.51 50.11,146.44 49.42,144.66 C49.16,143.96 49.85,141.32 50.98,138.79 C53.02,134.17 55.94,131.86 66.29,126.65 C68.38,125.61 69.92,124.59 69.72,124.39 C69.52,124.19 59.94,127.20 48.43,131.07 C42.19,133.17 35.09,135.48 28.93,137.44 C44.45,132.47 64.55,125.70 65.50,124.97 C66.05,124.55 71.20,122.77 76.94,121.00 C82.69,119.24 94.61,114.73 103.44,110.98 C118.56,104.56 125.29,101.70 128.79,99.54 C127.05,100.67 124.58,101.83 120.50,103.66 C108.07,109.23 106.70,110.46 113.79,109.67 C118.92,109.10 119.14,109.18 121.04,112.29 C123.71,116.68 123.54,118.75 119.50,130.57 C114.88,144.10 110.85,152.77 107.35,156.73 L 104.50 159.96 L 93.50 158.09 C87.45,157.07 80.65,156.00 78.38,155.73 L 74.27 155.23 L 81.38 161.38 C91.73,170.33 97.65,174.91 102.16,176.45 C97.00,175.59 94.19,173.77 84.93,165.84 C80.22,161.80 75.69,157.95 74.87,157.28 C74.05,156.61 70.96,155.85 65.22,154.92 C66.01,154.96 66.94,154.99 67.92,154.98 C71.18,154.97 72.07,154.70 71.01,154.03 ZM 378.19 103.46 C378.49,104.98 379.42,108.16 380.62,111.70 C383.29,119.53 383.88,120.47 386.58,121.17 C395.45,123.47 405.56,137.67 407.58,150.68 L 408.23 154.87 L 404.37 155.57 C402.24,155.96 396.98,157.57 392.68,159.14 C383.17,162.62 382.20,162.66 381.02,159.56 C379.96,156.77 378.07,155.60 370.16,152.88 C365.24,151.19 363.91,151.10 359.78,152.15 C355.46,153.26 354.61,153.16 349.94,150.97 C343.40,147.91 341.65,145.22 340.17,136.00 C340.12,135.71 340.08,135.43 340.04,135.14 C340.88,138.91 343.31,139.18 349.80,139.12 C353.68,139.08 358.89,139.66 361.37,140.41 C365.27,141.58 366.17,141.57 368.00,140.28 C369.42,139.29 371.24,139.01 373.52,139.44 L 376.92 140.08 L 375.03 134.79 C373.99,131.88 372.21,127.13 371.07,124.24 C369.93,121.35 369.00,118.08 369.00,116.99 C369.00,115.90 368.55,115.00 368.00,115.00 C367.45,115.00 367.00,114.66 367.00,114.25 C367.00,113.84 368.84,113.48 371.07,113.45 C375.72,113.39 376.66,112.35 377.59,106.22 C377.78,104.98 377.97,104.08 378.19,103.46 ZM 461.31 153.74 C464.58,153.08 464.76,152.38 464.69,150.72 C464.64,149.50 464.92,147.56 465.32,146.41 C466.43,143.17 459.30,135.89 448.93,129.67 C444.02,126.73 440.35,123.95 440.75,123.50 C441.16,123.05 440.95,123.00 440.28,123.38 C439.61,123.77 437.99,123.38 436.68,122.53 C431.39,119.06 385.23,103.20 378.84,102.49 C379.12,102.30 379.45,102.29 379.87,102.41 C380.77,102.67 384.88,103.86 389.00,105.06 C393.12,106.25 404.38,110.03 414.00,113.46 C423.62,116.89 433.75,120.39 436.50,121.24 C439.25,122.08 451.40,126.33 463.50,130.68 C475.60,135.04 490.58,140.11 496.78,141.97 C499.64,142.82 502.18,143.67 504.05,144.37 C503.56,144.35 503.12,144.42 502.83,144.61 C502.37,144.89 502.00,145.54 502.00,146.06 C502.00,146.73 503.48,147.04 504.91,146.97 C500.29,148.26 489.04,150.04 467.91,152.87 C465.51,153.19 463.32,153.47 461.31,153.74 ZM 215.73 106.11 C215.15,106.95 214.65,107.61 214.29,108.00 C213.02,109.38 212.20,111.09 212.48,111.80 C212.75,112.52 212.53,112.83 211.98,112.49 C211.43,112.15 210.72,112.58 210.39,113.44 C208.89,117.32 208.33,115.68 208.00,98.16 C208.07,98.65 208.14,99.08 208.22,99.43 C209.32,104.51 209.88,105.47 212.13,106.07 C213.58,106.45 215.19,106.48 215.70,106.13 C215.71,106.13 215.72,106.12 215.73,106.11 ZM 263.50 204.50 C264.05,204.31 262.48,204.05 260.00,203.91 C255.62,203.67 255.66,203.65 261.50,203.00 C267.03,202.39 266.73,202.32 257.69,202.17 C251.37,202.06 248.10,202.36 248.50,203.00 C248.84,203.55 248.53,204.05 247.81,204.12 C247.09,204.18 247.85,204.54 249.50,204.91 C252.29,205.54 261.22,205.28 263.50,204.50 ZM 321.90 103.25 C323.11,106.63 324.50,110.06 324.84,110.11 C325.20,110.18 326.79,110.38 328.37,110.56 C329.94,110.75 331.39,111.06 331.59,111.26 C332.59,112.26 328.60,115.93 325.86,116.53 C324.89,116.74 323.01,117.49 320.85,118.47 L 324.69 116.50 L 324.19 112.50 C323.92,110.34 322.90,106.22 321.90,103.25 ZM 240.00 202.00 C238.03,200.73 235.00,200.73 235.00,202.00 C235.00,202.55 236.46,202.99 238.25,202.98 C240.72,202.97 241.14,202.74 240.00,202.00 ZM 436.46 159.98 C440.74,156.39 443.79,155.98 451.18,155.11 L 451.39 155.09 C443.73,156.24 439.99,157.31 436.46,159.98 ZM 291.14 226.35 C298.46,222.10 307.74,214.88 316.50,206.49 C306.71,215.87 298.60,222.33 291.14,226.35 ZM 229.97 103.40 C233.81,102.87 238.23,105.85 243.70,112.68 C238.41,106.33 233.74,103.16 229.97,103.40 ZM 314.09 121.90 C306.71,125.69 301.84,126.29 298.71,122.26 C301.82,126.02 306.67,125.41 314.09,121.90 ZM 339.69 132.27 C339.22,127.31 339.41,122.55 340.20,118.39 C339.87,120.62 339.70,123.16 339.66,126.11 C339.62,128.61 339.60,130.63 339.69,132.27 ZM 30.40 150.57 C12.65,148.51 4.85,146.95 4.95,145.50 C4.98,144.96 8.55,143.55 12.93,142.35 C8.47,143.75 5.17,145.06 5.08,145.50 C4.80,146.91 11.80,148.34 30.40,150.57 ZM 214.93 132.61 C214.94,132.57 214.95,132.54 214.95,132.50 C216.08,126.01 217.47,120.73 219.27,116.25 C217.65,120.54 216.23,125.87 215.00,132.27 C214.98,132.38 214.96,132.50 214.93,132.61 ZM 167.89 78.13 C168.71,75.95 169.67,74.86 171.40,73.27 C171.83,72.88 172.21,72.50 172.54,72.15 C172.15,72.63 171.66,73.18 171.10,73.75 C169.59,75.30 168.64,76.47 167.89,78.13 ZM 268.15 231.45 C271.59,231.65 275.22,231.48 278.51,230.99 C275.09,231.63 271.68,231.77 268.15,231.45 ZM 208.84 44.70 C208.42,45.20 208.07,48.03 207.80,52.18 C207.96,47.48 208.27,45.38 208.76,44.78 C209.46,43.95 209.84,42.19 209.62,40.88 C209.84,42.19 209.49,43.91 208.84,44.70 ZM 179.57 238.30 C180.76,239.66 182.11,240.96 183.38,241.97 L 183.29 241.91 C182.10,241.15 180.86,239.96 179.57,238.30 ZM 188.85 86.98 C190.04,86.11 191.38,84.52 191.84,83.28 C191.40,84.70 190.13,86.27 188.85,86.98 ZM 112.00 174.89 C113.40,174.05 115.26,172.72 116.73,171.53 C114.50,173.42 112.60,174.74 110.78,175.58 C111.18,175.37 111.58,175.14 112.00,174.89 ZM 170.43 221.38 C171.90,224.61 173.50,228.00 174.85,230.71 C173.47,228.08 172.00,224.99 170.43,221.38 ZM 62.61 154.52 C59.84,154.10 56.56,153.66 52.77,153.18 C57.90,153.81 61.56,154.30 62.61,154.52 ZM 190.27 242.00 C189.18,242.86 188.48,243.42 187.86,243.67 C188.48,243.32 189.38,242.70 190.27,242.00 C191.28,241.21 192.57,239.62 193.86,237.71 C192.54,239.72 191.34,241.16 190.27,242.00 ZM 173.50 70.00 C172.19,70.06 169.66,71.72 166.72,74.31 C169.69,71.69 172.23,70.00 173.46,70.00 C173.47,70.00 173.48,70.00 173.50,70.00 ZM 185.84 88.03 C186.40,87.61 186.81,87.42 187.04,87.53 C186.64,87.65 186.24,87.82 185.84,88.03 ZM 408.36 187.62 C412.09,185.89 416.75,181.27 424.60,172.47 C424.92,172.10 425.23,171.75 425.54,171.41 C425.20,171.79 424.85,172.18 424.49,172.58 C416.72,181.31 412.08,185.90 408.36,187.62 ZM 142.22 84.00 L 142.23 84.00 C142.67,84.00 142.22,84.87 141.24,85.97 C142.22,84.87 142.66,84.01 142.22,84.00 ZM 118.95 169.59 L 118.36 170.12 C118.56,169.93 118.76,169.75 118.95,169.59 ZM 320.00 96.88 C320.00,96.91 320.00,96.94 320.01,96.97 C320.00,96.94 320.00,96.91 320.00,96.89 C320.00,96.89 320.00,96.88 320.00,96.88 Z" fill="rgb(104,157,238)"/>
<path d="M 285.00 65.04 C285.00,65.57 285.45,66.00 286.00,66.00 C285.45,66.00 285.00,66.62 285.00,67.38 C285.00,68.14 283.50,73.65 281.66,79.63 C278.33,90.49 278.32,90.51 270.17,98.77 C265.68,103.33 260.90,107.47 259.56,107.98 C255.41,109.55 252.99,106.59 251.38,97.95 C248.93,84.87 248.93,24.98 251.37,13.50 C251.98,10.65 251.94,10.60 250.48,12.48 C249.53,13.70 248.56,15.78 247.48,19.01 C248.88,14.46 250.11,11.57 251.17,10.29 C253.02,8.06 255.76,8.87 257.86,12.27 C260.36,16.32 264.96,32.67 267.99,48.30 L 270.28 60.10 L 273.16 59.47 C275.27,59.00 277.23,59.53 280.52,61.46 C282.98,62.90 285.00,64.52 285.00,65.04 ZM 314.09 121.90 C306.67,125.41 301.82,126.02 298.71,122.26 C294.65,117.03 293.53,103.99 293.67,80.00 C293.83,51.92 293.78,52.53 296.58,49.51 C297.58,48.43 298.23,47.50 298.26,47.15 C300.50,47.40 302.97,49.73 305.36,53.97 C307.06,56.98 310.99,67.56 314.09,77.47 L 319.74 95.50 L 324.62 96.16 C325.38,96.27 326.41,96.37 327.60,96.46 C323.12,96.40 320.00,96.55 320.00,96.85 C320.00,96.86 320.00,96.87 320.00,96.88 C320.00,96.88 320.00,96.89 320.00,96.89 C320.00,96.91 320.00,96.94 320.01,96.97 C320.08,97.85 320.93,100.54 321.90,103.25 L 321.90 103.25 C322.90,106.22 323.92,110.34 324.19,112.50 L 324.69 116.50 L 320.85 118.47 C319.17,119.24 317.32,120.16 315.61,121.10 C315.09,121.38 314.58,121.65 314.09,121.90 ZM 378.19 103.46 C377.97,104.08 377.78,104.98 377.59,106.22 C376.66,112.35 375.72,113.39 371.07,113.45 C368.84,113.48 367.00,113.84 367.00,114.25 C367.00,114.66 367.45,115.00 368.00,115.00 C368.55,115.00 369.00,115.90 369.00,116.99 C369.00,118.08 369.93,121.35 371.07,124.24 C372.21,127.13 373.99,131.88 375.03,134.79 L 376.92 140.08 L 373.52 139.44 C371.24,139.01 369.42,139.29 368.00,140.28 C366.17,141.57 365.27,141.58 361.37,140.41 C358.89,139.66 353.68,139.08 349.80,139.12 C343.31,139.18 340.88,138.91 340.04,135.14 C339.90,134.18 339.78,133.22 339.69,132.27 C339.60,130.63 339.62,128.61 339.66,126.11 C339.70,123.16 339.87,120.62 340.20,118.39 C341.15,113.34 342.98,109.17 345.54,106.60 C347.25,104.89 350.82,105.23 354.50,107.44 C354.70,107.56 354.89,107.68 355.07,107.79 C356.96,108.94 358.15,109.66 358.87,109.33 C360.08,108.80 359.99,105.36 359.72,96.16 L 359.71 95.93 L 359.70 95.44 C359.69,95.05 359.68,94.65 359.66,94.24 C359.27,80.66 359.44,78.23 360.86,76.55 C362.40,74.72 362.29,74.73 359.00,76.70 C356.32,78.30 354.45,80.92 351.00,87.95 L 346.50 97.11 L 340.41 96.88 L 346.50 96.91 L 350.00 89.28 C354.15,80.24 358.34,75.00 361.42,75.00 C362.63,75.00 364.84,76.27 366.33,77.82 C368.86,80.47 374.91,93.33 376.31,99.05 C376.80,101.04 377.81,101.77 383.95,103.59 C381.94,103.01 380.38,102.56 379.87,102.41 C379.45,102.29 379.12,102.30 378.84,102.49 C378.45,102.44 378.21,102.46 378.13,102.53 C378.07,102.60 378.09,102.93 378.19,103.46 ZM 214.93 132.61 L 214.93 132.61 C214.96,132.50 214.98,132.38 215.00,132.27 C216.23,125.87 217.65,120.54 219.27,116.25 C220.02,114.37 220.84,112.63 221.74,111.00 C224.28,106.40 226.95,103.81 229.97,103.40 C233.74,103.16 238.41,106.33 243.70,112.68 C247.12,116.94 250.95,122.70 255.31,130.05 C257.55,134.11 257.98,135.93 257.80,138.49 L 257.50 142.50 L 252.66 142.19 C249.52,141.99 247.00,142.43 245.45,143.44 C242.89,145.12 234.09,145.33 224.00,143.96 C218.23,143.17 215.48,142.89 214.44,141.40 C213.55,140.13 213.90,138.00 214.68,133.95 C214.77,133.50 214.86,133.05 214.93,132.61 ZM 215.73 106.11 C215.72,106.12 215.71,106.13 215.70,106.13 C215.19,106.48 213.58,106.45 212.13,106.07 C209.88,105.47 209.32,104.51 208.22,99.43 C208.14,99.08 208.07,98.65 208.00,98.16 C207.89,92.01 207.80,83.91 207.72,73.40 C207.64,63.38 207.66,56.62 207.80,52.18 C208.07,48.03 208.42,45.20 208.84,44.70 C209.49,43.91 209.84,42.19 209.62,40.88 C209.40,39.57 209.87,37.38 210.68,36.00 C211.88,33.93 211.62,34.05 209.18,36.64 C208.16,37.73 206.86,39.74 205.74,41.87 C206.35,40.39 206.86,39.26 207.24,38.60 C211.36,31.48 214.20,31.32 218.71,37.94 C221.77,42.43 224.55,50.18 228.77,66.00 C230.76,73.43 232.54,79.71 232.74,79.97 C232.98,80.28 233.24,80.21 233.54,79.74 C232.45,82.33 231.12,83.94 228.99,86.00 C227.00,87.93 223.39,93.10 220.98,97.50 C219.25,100.65 217.22,103.98 215.73,106.11 ZM 142.22 84.00 L 142.21 84.00 C140.86,84.00 137.29,88.16 133.83,93.75 C133.96,93.51 134.10,93.26 134.23,93.00 C137.19,87.22 141.13,83.00 143.55,83.00 C144.35,83.00 146.74,84.58 148.87,86.50 L 152.70 89.96 L 151.86 90.99 L 153.93 93.90 C155.07,95.50 156.00,97.20 156.00,97.68 C156.00,98.52 156.82,99.91 157.81,101.05 C158.00,101.35 158.20,101.65 158.40,101.95 C161.34,106.30 162.71,115.66 160.79,118.25 C159.32,120.23 138.34,124.45 135.46,123.34 C134.04,122.80 133.87,121.85 134.41,117.60 C134.60,116.09 134.89,113.75 135.21,111.28 C135.52,109.07 135.80,106.96 136.03,105.00 C136.84,98.27 137.18,96.36 138.48,91.00 C138.68,90.18 138.88,89.25 138.92,88.94 C138.97,88.63 139.92,87.39 141.04,86.19 C141.11,86.11 141.18,86.04 141.24,85.97 C142.22,84.87 142.67,84.00 142.23,84.00 ZM 167.89 78.13 C168.64,76.47 169.59,75.30 171.10,73.75 C171.66,73.18 172.15,72.63 172.54,72.15 C173.34,71.29 173.81,70.60 173.83,70.25 C174.53,70.08 175.22,70.00 175.88,70.00 C180.19,70.00 187.94,74.46 190.55,78.44 C191.47,79.85 192.53,81.00 192.89,81.00 C193.17,81.00 193.76,79.46 194.36,77.32 C194.13,78.29 194.00,78.97 194.00,79.25 C194.00,80.21 193.55,81.00 193.00,81.00 C192.45,81.00 192.00,81.59 192.00,82.31 C192.00,82.62 191.94,82.95 191.84,83.28 C191.38,84.52 190.04,86.11 188.85,86.98 C188.50,87.17 188.15,87.30 187.82,87.35 C187.56,87.39 187.30,87.45 187.04,87.53 C186.81,87.42 186.40,87.61 185.84,88.03 C183.90,89.08 182.02,91.21 180.31,94.19 C179.83,94.84 179.34,95.52 178.86,96.21 C177.34,98.41 176.73,98.55 171.16,98.02 C167.83,97.70 164.80,97.14 164.44,96.77 C164.16,96.49 164.39,93.84 164.96,90.35 C165.16,89.44 165.35,88.50 165.55,87.56 C166.52,82.84 167.16,80.06 167.89,78.13 ZM 297.65 47.13 C295.95,47.93 292.74,52.29 290.30,56.61 C292.22,52.76 294.45,48.87 295.40,48.08 C296.11,47.49 296.86,47.18 297.65,47.13 ZM 121.51 103.20 C117.42,105.04 111.67,107.48 103.44,110.98 C95.14,114.50 84.10,118.70 78.04,120.66 C86.54,117.87 108.51,109.00 121.51,103.20 ZM 168.11 73.13 C167.66,73.50 167.19,73.89 166.72,74.31 L 166.72 74.31 C164.24,76.49 161.45,79.33 158.84,82.41 C162.25,78.26 165.32,75.18 168.11,73.13 ZM 199.04 60.85 C197.42,66.15 195.87,71.47 194.93,75.05 C195.76,71.53 197.30,66.29 199.04,60.85 ZM 414.00 113.44 C423.62,116.88 433.75,120.39 436.50,121.24 C433.75,120.39 423.62,116.89 414.00,113.46 C409.61,111.90 404.88,110.26 400.64,108.83 C405.07,110.31 409.79,111.94 414.00,113.44 ZM 239.55 52.71 C238.76,56.63 237.94,60.88 237.05,65.50 C236.62,67.78 236.23,69.74 235.86,71.46 C236.19,69.92 236.53,68.17 236.91,66.19 C237.82,61.39 238.70,56.89 239.55,52.71 ZM 287.03 64.44 C287.02,64.55 287.01,64.65 287.01,64.75 C287.00,65.44 286.55,66.00 286.00,66.00 C286.55,66.00 287.00,65.42 287.00,64.72 C287.00,64.64 287.01,64.55 287.03,64.44 Z" fill="rgb(171,89,240)"/>
<path d="M 0.00 127.00 L 0.00 0.00 L 258.00 0.00 L 516.00 0.00 L 516.00 127.00 L 516.00 254.00 L 258.00 254.00 L 0.00 254.00 L 0.00 127.00 ZM 190.27 242.00 C193.28,239.64 197.36,232.49 201.98,221.50 C203.83,217.10 205.66,213.13 206.05,212.67 C206.44,212.21 212.33,214.49 219.13,217.74 C225.93,220.98 235.67,225.36 240.77,227.47 C248.66,230.73 250.41,231.13 252.52,230.17 C254.43,229.30 256.75,229.41 262.70,230.64 C280.25,234.27 293.88,228.15 316.50,206.49 C325.91,197.48 328.94,195.25 337.50,191.01 C352.32,183.68 356.69,181.12 375.32,168.84 C378.52,166.73 381.31,165.00 381.52,165.00 C381.73,165.00 383.34,167.14 385.11,169.75 C392.14,180.18 395.69,184.29 399.72,186.67 C406.53,190.68 410.26,188.56 424.49,172.58 C439.81,155.40 435.97,157.14 467.91,152.87 C494.81,149.27 505.69,147.37 507.28,146.01 C507.71,145.64 502.99,143.82 496.78,141.97 C490.58,140.11 475.60,135.04 463.50,130.68 C451.40,126.33 439.25,122.08 436.50,121.24 C433.75,120.39 423.62,116.88 414.00,113.44 C404.38,110.00 392.10,105.93 386.72,104.40 C378.10,101.94 376.87,101.31 376.31,99.05 C374.91,93.33 368.86,80.47 366.33,77.82 C364.84,76.27 362.63,75.00 361.42,75.00 C358.34,75.00 354.15,80.24 350.00,89.28 L 346.50 96.91 L 338.00 96.87 C333.33,96.84 327.30,96.53 324.62,96.16 L 319.74 95.50 L 314.09 77.47 C310.99,67.56 307.06,56.98 305.36,53.97 C301.90,47.83 298.28,45.69 295.40,48.08 C293.56,49.60 287.00,62.60 287.00,64.72 C287.00,65.42 286.55,66.00 286.00,66.00 C285.45,66.00 285.00,65.57 285.00,65.04 C285.00,64.52 282.98,62.90 280.52,61.46 C277.23,59.53 275.27,59.00 273.16,59.47 L 270.28 60.10 L 267.99 48.30 C264.96,32.67 260.36,16.32 257.86,12.27 C255.76,8.87 253.02,8.06 251.17,10.29 C248.00,14.12 243.35,32.34 236.91,66.19 C234.84,77.10 233.62,81.11 232.74,79.97 C232.54,79.71 230.76,73.43 228.77,66.00 C224.55,50.18 221.77,42.43 218.71,37.94 C214.20,31.32 211.36,31.48 207.24,38.60 C204.84,42.75 197.10,65.73 194.88,75.27 C194.14,78.42 193.25,81.00 192.89,81.00 C192.53,81.00 191.47,79.85 190.55,78.44 C187.94,74.46 180.19,70.00 175.88,70.00 C171.08,70.00 165.35,74.29 158.12,83.30 L 152.75 90.00 L 148.87 86.50 C146.74,84.58 144.35,83.00 143.55,83.00 C141.13,83.00 137.19,87.22 134.23,93.00 C132.25,96.85 130.37,99.01 127.95,100.20 C117.27,105.47 86.02,118.22 77.00,120.99 C71.22,122.76 66.05,124.55 65.50,124.97 C64.13,126.01 23.16,139.56 13.14,142.29 C8.67,143.51 4.98,144.95 4.95,145.50 C4.84,147.06 13.84,148.74 34.50,151.03 C60.90,153.96 73.11,155.85 74.87,157.28 C75.69,157.95 80.22,161.80 84.93,165.84 C94.86,174.34 97.38,175.82 103.31,176.63 C108.26,177.31 111.82,175.85 117.56,170.81 L 121.16 167.66 L 131.28 172.58 C153.08,183.17 154.00,183.82 157.68,191.00 C159.51,194.57 162.37,201.10 164.04,205.50 C172.48,227.81 178.22,238.66 183.29,241.91 C187.24,244.44 187.17,244.44 190.27,242.00 Z" fill="rgb(254,254,254)"/>
</g>
</svg>