<svg xmlns="http://www.w3.org/2000/svg" width="1280" height="720" viewBox="0 0 1280 720">
<g>
<path d="M 1024.33 494.12 C1022.47,495.97 1019.68,496.06 947.45,496.58 C893.36,496.97 872.01,496.81 870.75,496.01 C868.12,494.34 868.51,490.67 873.90,466.49 C876.60,454.39 879.10,442.68 879.46,440.45 L 880.11 436.39 L 874.80 433.95 C863.96,428.95 848.68,417.81 837.94,407.06 C820.94,390.06 812.60,375.70 806.40,352.75 L 803.50 342.01 L 798.93 342.00 C789.47,342.00 776.97,336.58 769.58,329.30 C762.18,322.00 757.13,307.08 758.47,296.43 C759.92,284.78 769.83,270.83 780.23,265.79 C786.20,262.89 794.10,261.00 800.30,260.99 L 804.50 260.98 L 806.82 253.33 C818.23,215.77 853.40,181.33 893.99,167.95 C904.09,164.62 918.09,162.22 933.50,161.18 L 943.50 160.50 L 944.06 135.24 L 937.37 132.88 C933.16,131.39 928.97,128.98 926.05,126.36 C904.38,106.87 916.54,69.27 945.19,67.22 C963.01,65.94 976.08,75.43 980.55,92.89 C981.90,98.16 981.98,100.30 981.03,105.75 C979.69,113.46 977.24,118.62 972.37,124.01 C969.04,127.69 958.29,134.00 955.34,134.00 C954.29,134.00 954.00,136.88 954.00,147.50 L 954.00 161.00 L 960.75 161.03 C969.27,161.07 990.03,164.93 1000.50,168.43 C1020.32,175.05 1044.91,190.52 1059.20,205.35 C1074.45,221.18 1083.36,236.92 1090.49,260.60 C1090.67,261.21 1094.55,262.01 1099.16,262.39 C1118.02,263.96 1131.55,275.64 1135.61,293.83 C1137.06,300.33 1137.14,302.54 1136.15,308.34 C1132.87,327.49 1118.18,341.93 1100.01,343.87 C1096.19,344.28 1092.88,344.81 1092.66,345.06 C1092.44,345.30 1090.85,350.07 1089.13,355.66 C1079.23,387.77 1054.79,417.06 1025.07,432.41 C1016.91,436.62 1015.89,437.44 1016.45,439.34 C1016.80,440.53 1017.94,446.23 1019.00,452.00 C1020.05,457.77 1022.09,468.12 1023.53,475.00 C1026.71,490.17 1026.77,491.67 1024.33,494.12 ZM 937.00 436.05 C978.61,437.26 988.64,436.24 1007.56,428.90 C1023.17,422.84 1033.66,415.95 1048.02,402.32 C1062.03,389.01 1072.10,372.74 1079.15,352.00 L 1083.41 339.50 L 1083.80 315.34 C1084.03,301.36 1083.74,287.02 1083.10,281.34 C1076.99,227.08 1031.01,181.90 974.00,174.16 C970.42,173.68 955.37,173.61 940.50,174.02 C915.92,174.70 912.64,175.00 903.93,177.36 C893.11,180.29 889.43,181.70 879.52,186.71 C855.97,198.60 836.73,216.94 826.22,237.50 C814.24,260.94 811.59,275.06 812.24,312.15 C812.65,335.58 812.89,338.26 815.33,347.50 C818.69,360.20 826.94,377.17 834.84,387.63 C849.88,407.57 873.27,424.34 895.26,430.95 C907.79,434.72 912.96,435.35 937.00,436.05 ZM 511.60 503.90 C509.71,505.98 509.26,506.00 457.87,506.00 L 406.05 506.00 L 404.62 503.75 C403.57,502.08 403.09,496.61 402.78,482.50 C402.46,468.45 401.98,462.91 400.93,461.25 C399.56,459.07 399.02,459.00 383.73,459.00 C372.59,459.00 366.97,458.59 364.65,457.63 C359.23,455.36 354.55,450.50 350.93,443.36 L 347.50 436.61 L 347.16 419.06 C346.94,407.14 346.45,401.27 345.66,400.77 C345.02,400.36 339.50,400.02 333.40,400.02 C323.51,400.00 321.93,399.75 318.91,397.72 C314.11,394.48 313.18,391.15 315.57,385.82 C316.63,383.46 322.94,372.43 329.59,361.30 L 341.68 341.06 L 342.32 321.78 C343.03,300.12 344.02,295.02 350.02,282.22 C353.18,275.48 355.53,272.23 361.73,266.03 C370.11,257.66 379.61,251.03 391.19,245.46 C422.28,230.53 467.36,231.62 497.81,248.04 C515.12,257.37 531.36,273.82 539.75,290.50 C549.13,309.13 551.43,336.24 545.60,359.17 C542.36,371.92 539.33,378.99 531.20,392.75 C514.65,420.78 514.80,420.16 514.07,465.65 C513.54,499.34 513.37,501.94 511.60,503.90 ZM 415.05 493.56 C416.06,494.77 422.91,495.00 458.56,495.00 C491.32,495.00 501.06,494.72 501.69,493.75 C502.14,493.06 502.76,477.65 503.08,459.50 C503.65,427.29 503.73,426.28 506.38,417.50 C508.09,411.84 512.31,402.56 517.76,392.50 C530.35,369.24 531.73,366.23 534.06,356.92 C537.09,344.81 537.76,325.86 535.55,314.93 C531.11,293.01 519.94,276.95 499.66,263.34 C481.21,250.96 456.88,245.50 430.94,247.92 C404.28,250.40 384.66,259.11 369.40,275.25 C356.36,289.03 354.19,295.78 353.34,325.00 L 352.75 345.50 L 343.75 361.00 C338.79,369.52 333.22,378.87 331.37,381.77 C329.52,384.67 328.00,387.48 328.00,388.02 C328.00,388.61 332.94,389.00 340.33,389.00 C352.28,389.00 352.72,389.08 355.08,391.58 C357.43,394.08 357.51,394.72 358.02,413.83 C358.52,433.01 358.60,433.61 361.25,438.06 C366.87,447.49 366.73,447.43 387.48,448.00 C412.71,448.69 412.43,448.41 413.29,474.81 C413.65,486.01 414.27,492.62 415.05,493.56 ZM 285.05 247.00 C266.40,250.78 246.03,250.43 224.00,245.96 C202.65,241.63 186.72,234.85 176.51,225.75 C174.26,223.75 172.55,222.46 171.24,220.83 C167.01,215.59 167.01,206.93 167.02,159.94 C167.02,156.04 167.02,151.87 167.02,147.42 L 167.00 82.34 L 170.17 77.56 C177.86,65.95 194.64,57.39 220.59,51.84 C230.29,49.76 234.10,49.50 255.00,49.53 C279.19,49.55 280.70,49.72 300.33,54.58 C318.65,59.12 334.02,68.51 339.30,78.39 L 341.50 82.50 L 341.50 146.50 C341.50,195.90 341.21,211.47 340.21,214.76 C338.34,220.94 328.65,230.89 320.25,235.27 C311.31,239.93 297.89,244.40 285.05,247.00 ZM 1024.30 360.16 L 1018.50 362.50 L 951.00 362.70 C948.25,362.71 945.61,362.71 943.07,362.72 C890.44,362.88 880.62,362.91 872.21,359.50 C869.87,358.55 867.64,357.34 864.64,355.79 C843.98,345.15 832.00,325.08 832.00,301.12 C832.00,277.00 849.51,254.66 874.36,247.09 C881.03,245.06 883.02,245.00 948.86,245.06 C1009.46,245.11 1017.18,245.29 1023.08,246.83 C1041.03,251.52 1056.74,267.69 1062.59,287.50 C1065.06,295.83 1065.04,312.55 1062.55,320.00 C1056.61,337.86 1042.28,352.91 1024.30,360.16 ZM 283.08 505.08 L 280.15 508.00 L 218.33 507.92 C184.32,507.88 155.82,507.60 155.00,507.30 C154.18,507.00 152.26,505.60 150.75,504.19 L 148.00 501.63 L 148.00 342.80 L 151.40 339.40 L 154.80 336.00 L 262.20 336.00 L 265.35 339.28 C275.56,349.93 282.42,357.96 284.09,361.21 C285.91,364.75 286.00,368.00 286.00,433.54 L 286.00 502.15 ZM 878.97 350.14 C884.08,351.78 889.58,351.90 951.05,351.71 L 1017.61 351.50 L 1025.55 347.57 C1038.41,341.22 1050.06,327.04 1053.03,314.11 C1057.80,293.34 1046.20,269.24 1026.76,259.52 L 1019.73 256.00 L 950.34 256.00 C946.55,256.00 942.95,256.00 939.54,256.00 C887.19,255.98 877.45,255.98 869.84,260.00 C867.60,261.18 865.55,262.70 862.65,264.68 C847.27,275.16 840.03,291.61 842.83,309.68 C845.86,329.17 858.77,343.62 878.97,350.14 ZM 160.14 495.67 C161.11,496.84 170.46,497.02 217.57,496.78 C248.51,496.63 274.06,496.27 274.33,496.00 C274.60,495.73 274.97,467.15 275.16,432.49 C275.20,425.78 275.24,419.76 275.28,414.35 C275.54,377.39 275.60,369.11 271.75,363.52 C270.08,361.10 267.66,359.18 264.20,355.63 L 256.98 348.24 L 238.74 347.87 C228.71,347.67 206.77,347.73 190.00,348.00 L 159.50 348.50 L 159.24 421.39 C159.05,475.37 159.29,494.64 160.14,495.67 ZM 237.23 122.90 C255.04,124.97 275.69,123.53 293.82,118.96 C308.98,115.13 318.37,110.39 325.43,102.99 C330.45,97.73 331.00,96.72 330.98,92.82 C330.93,83.19 324.98,76.21 311.41,69.84 C301.79,65.34 295.14,63.71 277.00,61.43 C254.38,58.58 222.44,61.18 204.48,67.32 C185.60,73.78 178.02,81.27 178.01,93.49 C178.00,97.12 178.60,98.05 184.60,103.70 C190.22,109.00 192.71,110.51 201.35,113.86 C212.54,118.19 226.07,121.60 237.23,122.90 ZM 236.00 180.57 C254.45,183.22 284.32,180.41 301.05,174.44 C312.26,170.44 321.50,165.27 325.83,160.57 L 329.71 156.36 L 330.41 143.93 C331.11,131.45 331.07,115.00 330.35,115.00 C330.13,115.00 328.28,116.11 326.23,117.47 C313.76,125.72 289.34,132.53 267.64,133.82 C236.52,135.66 208.76,130.63 186.50,119.13 C182.65,117.14 179.16,115.36 178.75,115.17 C178.34,114.99 178.00,123.84 178.00,134.84 L 178.00 154.84 L 181.25 159.11 C188.57,168.70 208.86,176.65 236.00,180.57 ZM 239.00 237.91 C253.80,239.41 271.74,238.43 283.97,235.47 C313.00,228.42 323.36,223.15 328.63,212.75 C331.09,207.88 331.16,207.27 330.83,190.95 C330.65,181.72 330.19,173.85 329.81,173.47 C329.43,173.09 327.77,173.74 326.14,174.90 C320.62,178.83 308.57,183.91 298.80,186.42 C259.60,196.51 222.59,193.77 190.13,178.39 C183.87,175.42 178.58,173.00 178.38,173.00 C178.17,173.00 178.00,181.12 178.00,191.05 C178.00,211.64 178.18,212.28 185.81,219.13 C195.82,228.14 217.24,235.70 239.00,237.91 ZM 472.58 401.91 C470.41,404.30 470.21,404.34 467.50,402.81 C464.47,401.09 464.20,400.31 463.45,391.06 C462.65,381.23 460.75,376.74 455.41,372.06 C450.44,367.69 444.84,365.43 436.91,364.58 C428.92,363.73 421.79,360.54 416.70,355.54 C412.35,351.26 408.36,345.29 407.46,341.69 C406.92,339.56 406.09,339.12 401.56,338.55 C390.53,337.17 379.06,329.17 375.33,320.26 C374.50,318.27 373.85,313.53 373.83,309.37 C373.81,303.28 374.31,300.93 376.75,295.71 C382.36,283.73 389.38,278.23 400.34,277.24 C405.54,276.76 406.72,276.25 409.23,273.39 C413.40,268.64 422.14,264.79 430.00,264.25 C438.00,263.70 445.63,266.28 451.92,271.66 L 456.18 275.31 L 460.62 273.16 C469.15,269.01 479.22,270.87 487.49,278.12 C492.21,282.25 497.00,289.59 497.00,292.68 C497.00,294.33 498.09,295.52 500.97,296.99 C511.10,302.15 516.73,311.40 517.72,324.51 C518.22,331.11 518.00,332.48 515.66,337.26 C514.19,340.27 510.40,345.15 507.02,348.40 C502.33,352.91 501.00,354.83 501.00,357.13 C501.00,363.37 495.55,370.62 488.72,373.47 C485.37,374.87 484.67,374.88 482.06,373.53 C476.01,370.40 476.89,365.29 483.98,362.29 C490.35,359.60 492.31,356.07 489.30,352.74 C488.18,351.51 486.51,349.31 485.59,347.86 C484.05,345.44 484.05,345.10 485.53,343.61 C486.61,342.53 488.90,342.00 492.46,342.00 C497.37,342.00 498.03,341.71 501.33,338.06 C505.33,333.63 506.54,329.17 505.68,321.98 C504.89,315.24 501.77,309.56 498.03,308.01 C495.15,306.82 489.79,307.01 483.75,308.53 C482.51,308.84 480.66,308.47 479.63,307.72 C477.09,305.86 478.25,302.46 482.88,298.21 C486.34,295.05 486.42,294.83 484.97,292.25 C482.35,287.58 475.36,283.00 470.86,283.00 C465.81,283.00 463.64,284.13 457.79,289.79 C453.48,293.96 452.85,294.25 450.55,293.21 C448.67,292.35 447.87,291.02 447.37,287.94 C447.01,285.67 445.62,282.52 444.29,280.94 C438.98,274.62 424.77,274.37 418.65,280.50 C417.27,281.87 417.02,283.15 417.53,286.17 C418.00,288.96 417.73,290.76 416.57,292.53 C414.47,295.73 413.08,295.64 408.50,292.00 C406.42,290.35 403.65,289.00 402.33,289.00 C393.27,289.00 385.00,299.15 385.00,310.28 C385.00,316.57 387.75,320.50 394.61,324.00 C402.26,327.91 412.37,327.46 426.00,322.61 C439.82,317.69 448.23,316.96 457.63,319.84 C469.38,323.45 473.51,328.97 468.66,334.61 L 466.17 337.50 L 463.21 335.32 C455.25,329.43 443.38,328.82 430.41,333.62 C426.61,335.03 422.26,336.63 420.75,337.19 C419.24,337.74 418.00,338.62 418.00,339.14 C418.00,339.66 420.07,342.29 422.59,344.99 C427.48,350.22 431.50,352.03 442.50,353.94 C452.14,355.62 462.01,361.04 466.84,367.29 C472.78,374.99 473.88,378.36 474.20,389.78 C474.44,398.47 474.22,400.10 472.58,401.91 ZM 881.34 485.74 C881.85,486.57 1007.59,486.33 1012.62,485.48 C1015.70,484.97 1015.72,484.91 1014.92,480.73 C1012.89,470.23 1006.88,441.55 1006.66,441.33 C1006.53,441.19 1003.69,441.93 1000.37,442.96 C988.55,446.64 979.81,447.22 943.86,446.72 C913.39,446.29 908.54,446.00 901.00,444.14 C896.33,442.99 891.77,442.04 890.89,442.03 C889.58,442.00 888.48,446.07 885.07,463.49 C882.76,475.31 881.08,485.32 881.34,485.74 ZM 909.68 325.44 C905.11,328.11 897.21,329.34 892.50,328.11 C883.82,325.85 875.03,318.09 872.96,310.85 C869.62,299.22 875.09,287.14 886.32,281.33 C890.48,279.18 900.47,278.50 906.00,279.99 C911.52,281.47 917.86,287.71 920.59,294.35 L 922.50 298.99 L 948.20 299.00 L 973.91 299.00 L 975.81 294.75 C979.71,286.02 989.06,280.02 1000.00,279.24 C1014.00,278.23 1023.70,287.15 1024.77,302.00 C1025.31,309.57 1023.91,313.75 1018.97,319.39 C1011.47,327.93 998.36,330.99 989.50,326.28 C984.31,323.52 978.36,317.62 975.90,312.81 L 973.96 309.00 L 922.16 309.00 L 921.07 312.28 C919.57,316.84 914.62,322.55 909.68,325.44 ZM 485.54 215.58 C483.64,218.47 479.99,218.75 477.65,216.17 C476.25,214.62 476.00,211.70 475.97,196.92 C475.94,174.05 474.78,162.46 472.00,157.00 C468.73,150.59 461.45,143.37 455.13,140.26 L 449.50 137.50 L 412.25 137.19 C391.76,137.03 375.00,137.21 375.00,137.60 C375.00,138.00 377.48,140.91 380.50,144.09 C386.55,150.43 387.40,153.60 383.98,157.02 C381.15,159.85 379.49,158.78 365.57,145.25 C357.93,137.82 354.12,134.35 354.11,130.86 C354.09,127.61 357.38,124.34 363.93,117.84 C364.36,117.41 364.80,116.98 365.25,116.52 C378.59,103.25 380.15,102.22 383.57,104.45 C387.93,107.31 386.89,111.24 379.84,118.59 C376.45,122.11 373.87,125.07 374.09,125.15 C374.32,125.23 392.27,125.56 414.00,125.90 L 453.50 126.50 L 459.00 129.16 C470.66,134.80 479.65,144.01 484.15,154.92 C486.32,160.17 486.47,162.05 486.79,186.83 C487.08,209.56 486.91,213.50 485.54,215.58 ZM 788.50 329.90 C790.15,330.40 793.75,330.86 796.50,330.91 L 801.50 331.00 L 801.50 306.25 C801.50,292.64 801.83,279.34 802.24,276.70 L 802.97 271.90 L 796.74 272.57 C780.24,274.32 770.03,284.82 770.01,300.07 C769.99,314.95 777.07,326.38 788.50,329.90 ZM 1095.00 333.34 C1095.00,334.76 1103.23,332.98 1108.71,330.37 C1115.25,327.26 1121.30,320.48 1124.07,313.15 C1129.84,297.85 1120.70,278.88 1105.41,274.43 C1098.89,272.54 1093.31,272.81 1093.91,275.00 C1094.20,276.08 1095.03,320.36 1095.00,333.34 ZM 940.01 120.41 C941.93,121.24 945.53,121.93 948.00,121.94 C960.46,121.99 970.35,110.48 968.49,98.08 C966.82,86.94 958.45,79.98 946.78,80.02 C935.75,80.05 927.46,88.84 927.55,100.42 C927.61,109.76 932.12,116.99 940.01,120.41 ZM 324.35 473.25 C316.85,480.32 313.66,481.52 310.57,478.43 C307.76,475.62 308.86,473.09 316.02,465.98 L 323.04 459.00 L 312.13 459.00 C303.05,459.00 300.84,458.69 298.96,457.17 C297.23,455.77 296.85,454.72 297.35,452.74 C298.71,447.33 300.40,446.69 311.44,447.39 C316.98,447.74 322.08,447.64 322.80,447.18 C323.73,446.56 322.01,444.46 316.55,439.57 C312.34,435.81 309.00,432.01 309.00,430.98 C309.00,428.01 311.83,426.00 316.02,426.00 C319.70,426.00 320.42,426.58 329.98,437.25 C335.53,443.44 340.32,449.51 340.64,450.75 C341.91,455.71 339.70,458.76 324.35,473.25 ZM 254.00 385.00 C252.08,386.92 250.67,387.00 216.65,387.00 C183.68,387.00 181.20,386.88 179.65,385.17 C178.74,384.17 178.00,382.20 178.00,380.79 C178.00,375.61 178.55,375.53 216.57,375.17 C251.17,374.85 251.88,374.88 253.92,376.92 C256.54,379.54 256.57,382.43 254.00,385.00 ZM 253.36 446.49 C251.05,448.81 181.89,448.75 179.57,446.43 C177.46,444.32 177.58,440.69 179.83,438.65 C181.46,437.18 185.57,437.00 217.79,437.00 C253.13,437.00 253.95,437.05 255.02,439.04 C256.25,441.33 255.60,444.26 253.36,446.49 ZM 253.38 415.71 C252.02,416.70 243.65,417.00 216.81,417.00 C184.05,417.00 181.89,416.89 180.12,415.12 C178.07,413.07 178.26,408.86 180.48,407.02 C181.31,406.32 193.95,406.06 218.12,406.24 L 254.50 406.50 L 254.82 410.46 C255.06,413.35 254.67,414.77 253.38,415.71 ZM 842.00 152.00 C840.84,153.16 838.67,154.00 836.81,154.00 C834.02,154.00 831.50,151.89 816.64,137.11 C801.97,122.51 799.67,119.79 799.67,117.12 C799.67,113.30 802.49,110.00 805.76,110.00 C808.78,110.00 814.09,114.70 831.08,132.43 C839.02,140.72 844.00,146.70 844.00,147.96 C844.00,149.08 843.10,150.90 842.00,152.00 ZM 806.00 193.00 C804.90,194.10 803.19,195.00 802.20,195.00 C800.63,195.00 795.16,191.77 768.28,175.00 C765.20,173.07 761.78,170.29 760.69,168.81 C758.94,166.45 758.86,165.76 759.98,163.05 C762.43,157.12 766.69,157.84 779.86,166.38 C783.51,168.75 790.55,173.07 795.50,175.98 C800.45,178.89 805.29,182.16 806.25,183.25 C808.59,185.88 808.47,190.53 806.00,193.00 ZM 1066.04 152.24 C1060.90,155.77 1055.78,153.80 1055.53,148.18 C1055.40,145.36 1056.82,143.67 1078.79,120.58 C1087.58,111.35 1089.65,109.67 1092.23,109.67 C1095.90,109.67 1098.00,112.16 1098.00,116.49 C1098.00,118.77 1097.03,120.54 1094.39,123.05 C1092.41,124.95 1085.79,131.90 1079.68,138.50 C1073.58,145.10 1067.44,151.28 1066.04,152.24 ZM 887.44 313.70 C891.33,317.60 892.20,318.00 896.64,318.00 C908.63,318.00 916.10,305.38 909.72,295.91 C906.53,291.18 903.51,289.85 896.85,290.26 C889.71,290.70 884.61,294.25 882.90,299.94 C881.30,305.29 882.41,308.67 887.44,313.70 ZM 994.00 317.29 C994.83,317.60 997.38,317.88 999.67,317.92 C1002.92,317.98 1004.80,317.27 1008.17,314.71 C1016.20,308.61 1016.95,297.96 1009.72,292.80 C1007.13,290.95 1005.19,290.50 999.83,290.50 C994.10,290.50 992.79,290.85 990.49,293.00 C985.11,298.02 983.57,304.36 986.40,309.80 C987.95,312.78 991.67,316.44 994.00,317.29 ZM 206.13 315.35 C204.59,317.20 201.38,317.45 198.75,315.92 C197.15,314.99 197.00,312.52 197.00,287.03 C197.00,271.70 197.27,258.45 197.61,257.58 C198.42,255.46 204.36,255.51 206.51,257.65 C207.98,259.13 208.13,262.26 207.83,286.50 C207.57,307.70 207.20,314.06 206.13,315.35 ZM 227.17 477.35 C225.59,478.78 222.45,479.00 203.89,479.00 C180.18,479.00 178.00,478.51 178.00,473.14 C178.00,468.13 178.64,468.00 204.09,468.00 C224.78,468.00 227.86,468.20 228.39,469.58 C229.51,472.50 229.01,475.68 227.17,477.35 ZM 351.02 397.25 C351.01,398.76 351.45,400.00 352.00,400.00 C353.26,400.00 353.26,397.96 352.00,396.00 C351.24,394.83 351.03,395.11 351.02,397.25 ZM 349.02 396.50 C349.16,397.05 349.47,396.50 349.70,395.28 C349.94,394.06 349.68,392.26 349.12,391.28 C348.29,389.83 348.17,390.05 348.44,392.50 C348.62,394.15 348.88,395.95 349.02,396.50 Z" fill="rgb(20,85,185)"/>
<path d="M 351.02 397.25 C351.03,395.11 351.24,394.83 352.00,396.00 C353.26,397.96 353.26,400.00 352.00,400.00 C351.45,400.00 351.01,398.76 351.02,397.25 ZM 349.02 396.50 C348.88,395.95 348.62,394.15 348.44,392.50 C348.17,390.05 348.29,389.83 349.12,391.28 C349.68,392.26 349.94,394.06 349.70,395.28 C349.47,396.50 349.16,397.05 349.02,396.50 Z" fill="rgb(110,143,193)"/>
<path d="M 271.00 629.00 L 271.00 652.00 L 264.97 652.00 C261.04,652.00 258.77,651.56 258.45,650.74 C258.19,650.05 258.09,635.76 258.23,618.99 L 258.50 588.50 L 270.98 588.22 C285.43,587.89 292.03,589.02 296.78,592.65 C302.34,596.89 303.99,600.54 304.00,608.60 C304.00,616.64 301.91,620.94 296.25,624.50 C294.51,625.60 293.06,626.72 293.04,627.00 C293.02,627.28 295.87,632.78 299.37,639.22 C302.86,645.67 305.48,651.18 305.19,651.47 C304.90,651.76 302.08,652.00 298.91,652.00 C293.48,652.00 293.06,651.82 291.26,648.75 C290.21,646.96 287.13,641.79 284.43,637.25 L 279.50 629.00 ZM 828.10 669.87 C823.52,671.39 815.38,671.22 810.50,669.50 C805.90,667.87 800.00,661.98 800.00,659.01 C800.00,657.27 800.65,657.00 804.96,657.00 C808.78,657.00 810.16,657.43 810.93,658.86 C812.36,661.54 817.38,663.34 821.35,662.59 C826.59,661.61 828.35,658.91 828.79,651.19 C829.16,644.66 829.13,644.56 827.46,646.86 C821.48,655.05 805.46,652.91 800.15,643.21 C795.93,635.50 796.03,619.21 800.34,612.82 C803.92,607.52 808.50,605.00 814.60,605.00 C820.81,605.00 824.37,606.39 826.51,609.65 C828.70,613.00 830.38,612.65 829.65,609.00 L 829.05 606.00 L 840.00 606.00 L 840.00 630.63 C840.00,646.18 839.58,656.67 838.86,659.07 C837.51,663.59 832.82,668.29 828.10,669.87 ZM 407.72 650.33 C404.26,652.57 402.56,652.98 397.05,652.90 C387.85,652.75 384.24,651.33 378.43,645.54 C371.73,638.86 369.55,631.53 370.20,617.84 C370.75,606.28 373.40,599.58 379.58,594.14 C385.01,589.35 389.58,587.99 400.12,588.02 C407.33,588.04 409.19,588.43 413.48,590.77 C419.19,593.90 422.90,599.53 423.27,605.65 L 423.50 609.50 L 417.56 609.50 C411.78,609.50 411.61,609.42 410.84,606.44 C410.40,604.76 408.87,602.29 407.44,600.94 C403.93,597.65 394.57,597.44 390.39,600.56 C384.18,605.19 383.50,607.10 383.50,619.90 C383.50,630.98 383.65,631.88 386.20,635.72 C389.53,640.76 395.97,643.60 401.64,642.54 C405.92,641.74 412.00,636.25 412.00,633.18 C412.00,632.07 412.26,630.47 412.59,629.63 C413.07,628.37 412.05,628.05 406.84,627.80 L 400.50 627.50 L 399.89 619.00 L 424.00 619.00 L 424.00 652.12 L 420.25 651.81 C416.73,651.52 416.44,651.23 415.46,647.18 C414.43,642.94 414.39,642.90 413.13,645.25 C412.43,646.57 409.99,648.85 407.72,650.33 ZM 325.56 639.50 L 321.83 652.00 L 316.47 652.00 C313.53,652.00 310.87,651.60 310.57,651.11 C310.27,650.62 314.92,636.33 320.90,619.36 L 331.79 588.50 L 345.50 588.50 L 348.83 598.00 C355.16,616.02 367.00,650.85 367.00,651.42 C367.00,652.62 355.11,651.99 354.31,650.75 C353.86,650.06 352.81,647.25 351.96,644.50 L 350.43 639.50 ZM 752.39 639.00 L 748.40 651.50 L 742.91 651.79 C739.89,651.96 737.15,651.82 736.83,651.49 C736.50,651.16 737.05,648.56 738.06,645.70 C750.45,610.54 756.90,592.10 757.46,590.25 C758.07,588.20 758.75,588.00 764.94,588.00 L 771.74 588.00 L 774.46 595.66 C779.02,608.52 793.08,649.44 793.30,650.50 C793.42,651.09 790.80,651.50 787.00,651.50 L 780.50 651.50 L 776.65 639.00 ZM 1080.39 639.00 L 1076.40 651.50 L 1070.70 651.80 C1066.21,652.04 1065.00,651.79 1065.00,650.63 C1065.00,649.22 1081.12,602.46 1084.86,593.00 L 1086.64 588.50 L 1093.22 588.21 L 1099.79 587.91 L 1103.31 598.21 C1105.24,603.87 1110.01,617.82 1113.91,629.22 C1117.81,640.61 1121.00,650.42 1121.00,651.01 C1121.00,651.71 1118.75,651.99 1114.75,651.80 L 1108.50 651.50 L 1106.50 645.26 L 1104.50 639.03 L 1092.44 639.01 ZM 882.83 649.61 C875.49,654.24 864.40,653.64 857.06,648.21 C849.74,642.81 846.62,627.17 850.92,617.45 C853.67,611.22 855.55,609.15 860.50,606.88 C865.28,604.69 874.68,604.42 879.30,606.35 C886.26,609.26 890.98,617.50 890.99,626.75 L 891.00 631.00 L 875.50 631.00 L 874.45 631.00 C864.60,631.00 860.91,631.00 860.16,632.48 C859.71,633.37 860.30,634.79 861.25,637.06 C861.31,637.19 861.36,637.33 861.42,637.47 C864.25,644.24 873.06,646.10 878.15,641.00 C880.67,638.48 881.94,638.00 886.08,638.00 C888.78,638.00 891.00,638.24 891.00,638.54 C891.00,640.99 886.21,647.47 882.83,649.61 ZM 910.50 619.83 L 909.50 651.50 L 904.96 651.80 C902.47,651.96 900.10,651.77 899.71,651.38 C899.32,650.99 899.00,640.62 899.00,628.33 L 899.00 606.00 L 909.00 606.00 L 909.00 613.27 L 911.09 610.61 C914.17,606.70 918.21,605.00 924.47,605.00 C929.35,605.00 930.46,605.39 933.55,608.25 C936.55,611.01 937.23,612.48 938.07,618.00 C938.62,621.58 938.94,630.58 938.78,638.00 L 938.50 651.50 L 927.50 651.50 L 927.00 634.66 C926.52,618.46 926.41,617.75 924.14,615.91 C920.81,613.22 917.55,613.53 913.77,616.91 ZM 1029.22 651.96 C1017.51,655.21 1005.65,649.28 1002.47,638.60 C999.55,628.77 1001.24,616.63 1006.28,611.15 C1009.83,607.29 1015.82,605.05 1022.63,605.02 C1032.44,604.99 1037.35,607.80 1040.46,615.25 C1043.00,621.32 1042.65,622.00 1037.00,622.00 C1033.31,622.00 1032.00,621.62 1032.00,620.56 C1032.00,617.88 1027.59,613.95 1024.00,613.42 C1016.69,612.35 1012.01,618.24 1012.01,628.50 C1012.01,638.37 1016.28,643.99 1023.80,644.00 C1027.34,644.00 1032.00,640.33 1032.00,637.55 C1032.00,636.34 1033.20,636.00 1037.43,636.00 L 1042.86 636.00 L 1042.04 638.86 C1040.15,645.46 1035.50,650.21 1029.22,651.96 ZM 972.00 647.62 L 972.00 652.00 L 966.75 652.00 C960.00,652.00 955.00,649.49 952.75,645.00 C951.34,642.18 951.00,638.84 951.00,627.75 L 951.00 614.00 L 947.72 614.00 C944.58,614.00 944.45,613.84 944.53,610.25 C944.62,606.79 944.87,606.48 947.81,606.19 C950.52,605.92 951.00,605.47 951.00,603.22 C951.00,601.76 951.74,598.64 952.64,596.28 C954.17,592.26 954.51,592.00 958.14,592.00 L 962.00 592.00 L 962.00 606.00 L 973.00 606.00 L 973.00 614.00 L 961.84 614.00 L 962.17 626.58 C962.53,640.33 963.01,641.41 969.25,642.69 C971.75,643.20 972.00,643.66 972.00,647.62 ZM 1140.00 588.00 L 1140.00 652.00 L 1134.67 652.00 C1131.73,652.00 1129.03,651.70 1128.67,651.33 C1128.30,650.97 1128.00,636.57 1128.00,619.33 L 1128.00 588.00 ZM 992.77 628.75 L 992.50 651.50 L 987.46 651.79 C984.69,651.96 982.10,651.77 981.71,651.38 C981.32,650.99 981.00,640.62 981.00,628.33 L 981.00 606.00 L 993.04 606.00 ZM 813.34 641.07 C818.64,644.30 823.77,643.06 827.00,637.77 C830.77,631.58 829.03,617.69 824.15,615.08 C823.04,614.49 820.49,614.00 818.49,614.00 C809.92,614.00 806.00,624.36 809.66,637.32 C809.95,638.32 811.60,640.01 813.34,641.07 ZM 271.75 618.43 C272.16,618.85 275.59,619.01 279.37,618.80 C285.39,618.47 286.54,618.08 288.62,615.65 C291.98,611.75 291.94,604.85 288.55,601.45 C286.37,599.28 285.22,599.00 278.55,599.00 L 271.00 599.00 L 271.00 608.33 C271.00,613.47 271.34,618.01 271.75,618.43 ZM 759.17 617.75 L 756.20 627.00 L 772.76 627.00 L 768.92 614.87 C766.81,608.20 764.87,602.54 764.61,602.28 C764.36,602.02 763.69,603.32 763.14,605.16 C762.58,607.00 760.79,612.66 759.17,617.75 ZM 330.00 626.33 C330.00,626.70 333.60,627.00 338.00,627.00 C342.40,627.00 346.00,626.73 346.00,626.39 C346.00,624.47 338.76,603.00 338.11,603.00 C337.44,603.00 330.00,624.41 330.00,626.33 ZM 1087.90 615.55 L 1084.24 627.00 L 1100.85 627.00 L 1096.82 614.94 C1094.60,608.31 1092.51,603.16 1092.17,603.49 C1091.83,603.83 1089.91,609.26 1087.90,615.55 ZM 860.51 623.02 C860.85,623.56 865.37,624.00 870.56,624.00 C880.93,624.00 881.42,623.64 878.54,618.07 C876.80,614.71 875.24,614.00 869.57,614.00 C865.20,614.00 863.46,615.18 861.08,619.77 C860.44,621.02 860.18,622.48 860.51,623.02 ZM 992.80 592.75 L 992.50 597.50 L 987.46 597.79 C984.69,597.96 982.10,597.77 981.71,597.38 C981.32,596.99 981.00,594.72 981.00,592.33 L 981.00 588.00 L 993.11 588.00 Z" fill="rgb(50,57,63)"/>
<path d="M 0.00 360.00 L 0.00 0.00 L 640.00 0.00 L 1280.00 0.00 L 1280.00 360.00 L 1280.00 720.00 L 640.00 720.00 L 0.00 720.00 L 0.00 360.00 ZM 828.10 669.87 C832.82,668.29 837.51,663.59 838.86,659.07 C839.58,656.67 840.00,646.18 840.00,630.63 L 840.00 606.00 L 834.53 606.00 L 829.05 606.00 L 829.65 609.00 C830.38,612.65 828.70,613.00 826.51,609.65 C824.37,606.39 820.81,605.00 814.60,605.00 C808.50,605.00 803.92,607.52 800.34,612.82 C796.03,619.21 795.93,635.50 800.15,643.21 C805.46,652.91 821.48,655.05 827.46,646.86 C829.13,644.56 829.16,644.66 828.79,651.19 C828.35,658.91 826.59,661.61 821.35,662.59 C817.38,663.34 812.36,661.54 810.93,658.86 C810.16,657.43 808.78,657.00 804.96,657.00 C800.65,657.00 800.00,657.27 800.00,659.01 C800.00,661.98 805.90,667.87 810.50,669.50 C815.38,671.22 823.52,671.39 828.10,669.87 ZM 407.72 650.33 C409.99,648.85 412.43,646.57 413.13,645.25 C414.39,642.90 414.43,642.94 415.46,647.18 C416.44,651.23 416.73,651.52 420.25,651.81 L 424.00 652.12 L 424.00 635.56 L 424.00 619.00 L 411.94 619.00 L 399.89 619.00 L 400.19 623.25 L 400.50 627.50 L 406.84 627.80 C412.05,628.05 413.07,628.37 412.59,629.63 C412.26,630.47 412.00,632.07 412.00,633.18 C412.00,636.25 405.92,641.74 401.64,642.54 C395.97,643.60 389.53,640.76 386.20,635.72 C383.65,631.88 383.50,630.98 383.50,619.90 C383.50,607.10 384.18,605.19 390.39,600.56 C394.57,597.44 403.93,597.65 407.44,600.94 C408.87,602.29 410.40,604.76 410.84,606.44 C411.61,609.42 411.78,609.50 417.56,609.50 L 423.50 609.50 L 423.27 605.65 C422.90,599.53 419.19,593.90 413.48,590.77 C409.19,588.43 407.33,588.04 400.12,588.02 C389.58,587.99 385.01,589.35 379.58,594.14 C373.40,599.58 370.75,606.28 370.20,617.84 C369.55,631.53 371.73,638.86 378.43,645.54 C384.24,651.33 387.85,652.75 397.05,652.90 C402.56,652.98 404.26,652.57 407.72,650.33 ZM 882.83 649.61 C886.21,647.47 891.00,640.99 891.00,638.54 C891.00,638.24 888.78,638.00 886.08,638.00 C881.94,638.00 880.67,638.48 878.15,641.00 C873.06,646.10 864.25,644.24 861.42,637.47 C858.66,630.86 858.35,631.00 875.50,631.00 L 891.00 631.00 L 890.99 626.75 C890.98,617.50 886.26,609.26 879.30,606.35 C874.68,604.42 865.28,604.69 860.50,606.88 C855.55,609.15 853.67,611.22 850.92,617.45 C846.62,627.17 849.74,642.81 857.06,648.21 C864.40,653.64 875.49,654.24 882.83,649.61 ZM 1029.22 651.96 C1035.50,650.21 1040.15,645.46 1042.04,638.86 L 1042.86 636.00 L 1037.43 636.00 C1033.20,636.00 1032.00,636.34 1032.00,637.55 C1032.00,640.33 1027.34,644.00 1023.80,644.00 C1016.28,643.99 1012.01,638.37 1012.01,628.50 C1012.01,618.24 1016.69,612.35 1024.00,613.42 C1027.59,613.95 1032.00,617.88 1032.00,620.56 C1032.00,621.62 1033.31,622.00 1037.00,622.00 C1042.65,622.00 1043.00,621.32 1040.46,615.25 C1037.35,607.80 1032.44,604.99 1022.63,605.02 C1015.82,605.05 1009.83,607.29 1006.28,611.15 C1001.24,616.63 999.55,628.77 1002.47,638.60 C1005.65,649.28 1017.51,655.21 1029.22,651.96 ZM 271.00 640.50 L 271.00 629.00 L 275.25 629.00 L 279.50 629.00 L 284.43 637.25 C287.13,641.79 290.21,646.96 291.26,648.75 C293.06,651.82 293.48,652.00 298.91,652.00 C302.08,652.00 304.90,651.76 305.19,651.47 C305.48,651.18 302.86,645.67 299.37,639.22 C295.87,632.78 293.02,627.28 293.04,627.00 C293.06,626.72 294.51,625.60 296.25,624.50 C301.91,620.94 304.00,616.64 304.00,608.60 C303.99,600.54 302.34,596.89 296.78,592.65 C292.03,589.02 285.43,587.89 270.98,588.22 L 258.50 588.50 L 258.23 618.99 C258.09,635.76 258.19,650.05 258.45,650.74 C258.77,651.56 261.04,652.00 264.97,652.00 L 271.00 652.00 L 271.00 640.50 ZM 323.69 645.75 L 325.56 639.50 L 337.99 639.50 L 350.43 639.50 L 351.96 644.50 C352.81,647.25 353.86,650.06 354.31,650.75 C355.11,651.99 367.00,652.62 367.00,651.42 C367.00,650.85 355.16,616.02 348.83,598.00 L 345.50 588.50 L 338.65 588.50 L 331.79 588.50 L 320.90 619.36 C314.92,636.33 310.27,650.62 310.57,651.11 C310.87,651.60 313.53,652.00 316.47,652.00 L 321.83 652.00 L 323.69 645.75 ZM 750.39 645.25 L 752.39 639.00 L 764.52 639.00 L 776.65 639.00 L 778.57 645.25 L 780.50 651.50 L 787.00 651.50 C790.80,651.50 793.42,651.09 793.30,650.50 C793.08,649.44 779.02,608.52 774.46,595.66 L 771.74 588.00 L 764.94 588.00 C758.75,588.00 758.07,588.20 757.46,590.25 C756.90,592.10 750.45,610.54 738.06,645.70 C737.05,648.56 736.50,651.16 736.83,651.49 C737.15,651.82 739.89,651.96 742.91,651.79 L 748.40 651.50 L 750.39 645.25 ZM 910.00 635.66 L 910.50 619.83 L 913.77 616.91 C917.55,613.53 920.81,613.22 924.14,615.91 C926.41,617.75 926.52,618.46 927.00,634.66 L 927.50 651.50 L 933.00 651.50 L 938.50 651.50 L 938.78 638.00 C938.94,630.58 938.62,621.58 938.07,618.00 C937.23,612.48 936.55,611.01 933.55,608.25 C930.46,605.39 929.35,605.00 924.47,605.00 C918.21,605.00 914.17,606.70 911.09,610.61 L 909.00 613.27 L 909.00 609.63 L 909.00 606.00 L 904.00 606.00 L 899.00 606.00 L 899.00 628.33 C899.00,640.62 899.32,650.99 899.71,651.38 C900.10,651.77 902.47,651.96 904.96,651.80 L 909.50 651.50 L 910.00 635.66 ZM 972.00 647.62 C972.00,643.66 971.75,643.20 969.25,642.69 C963.01,641.41 962.53,640.33 962.17,626.58 L 961.84 614.00 L 967.42 614.00 L 973.00 614.00 L 973.00 610.00 L 973.00 606.00 L 967.50 606.00 L 962.00 606.00 L 962.00 599.00 L 962.00 592.00 L 958.14 592.00 C954.51,592.00 954.17,592.26 952.64,596.28 C951.74,598.64 951.00,601.76 951.00,603.22 C951.00,605.47 950.52,605.92 947.81,606.19 C944.87,606.48 944.62,606.79 944.53,610.25 C944.45,613.84 944.58,614.00 947.72,614.00 L 951.00 614.00 L 951.00 627.75 C951.00,638.84 951.34,642.18 952.75,645.00 C955.00,649.49 960.00,652.00 966.75,652.00 L 972.00 652.00 L 972.00 647.62 ZM 992.77 628.75 L 993.04 606.00 L 987.02 606.00 L 981.00 606.00 L 981.00 628.33 C981.00,640.62 981.32,650.99 981.71,651.38 C982.10,651.77 984.69,651.96 987.46,651.79 L 992.50 651.50 L 992.77 628.75 ZM 1078.39 645.25 L 1080.39 639.00 L 1092.44 639.01 L 1104.50 639.03 L 1106.50 645.26 L 1108.50 651.50 L 1114.75 651.80 C1118.75,651.99 1121.00,651.71 1121.00,651.01 C1121.00,650.42 1117.81,640.61 1113.91,629.22 C1110.01,617.82 1105.24,603.87 1103.31,598.21 L 1099.79 587.91 L 1093.22 588.21 L 1086.64 588.50 L 1084.86 593.00 C1081.12,602.46 1065.00,649.22 1065.00,650.63 C1065.00,651.79 1066.21,652.04 1070.70,651.80 L 1076.40 651.50 L 1078.39 645.25 ZM 1140.00 620.00 L 1140.00 588.00 L 1134.00 588.00 L 1128.00 588.00 L 1128.00 619.33 C1128.00,636.57 1128.30,650.97 1128.67,651.33 C1129.03,651.70 1131.73,652.00 1134.67,652.00 L 1140.00 652.00 L 1140.00 620.00 ZM 992.80 592.75 L 993.11 588.00 L 987.05 588.00 L 981.00 588.00 L 981.00 592.33 C981.00,594.72 981.32,596.99 981.71,597.38 C982.10,597.77 984.69,597.96 987.46,597.79 L 992.50 597.50 L 992.80 592.75 ZM 283.08 505.08 L 286.00 502.15 L 286.00 433.54 C286.00,368.00 285.91,364.75 284.09,361.21 C282.42,357.96 275.56,349.93 265.35,339.28 L 262.20 336.00 L 208.50 336.00 L 154.80 336.00 L 151.40 339.40 L 148.00 342.80 L 148.00 422.21 L 148.00 501.63 L 150.75 504.19 C152.26,505.60 154.18,507.00 155.00,507.30 C155.82,507.60 184.32,507.88 218.33,507.92 L 280.15 508.00 L 283.08 505.08 ZM 511.60 503.90 C513.37,501.94 513.54,499.34 514.07,465.65 C514.80,420.16 514.65,420.78 531.20,392.75 C539.33,378.99 542.36,371.92 545.60,359.17 C551.43,336.24 549.13,309.13 539.75,290.50 C531.36,273.82 515.12,257.37 497.81,248.04 C467.36,231.62 422.28,230.53 391.19,245.46 C379.61,251.03 370.11,257.66 361.73,266.03 C355.53,272.23 353.18,275.48 350.02,282.22 C344.02,295.02 343.03,300.12 342.32,321.78 L 341.68 341.06 L 329.59 361.30 C322.94,372.43 316.63,383.46 315.57,385.82 C313.18,391.15 314.11,394.48 318.91,397.72 C321.93,399.75 323.51,400.00 333.40,400.02 C339.50,400.02 345.02,400.36 345.66,400.77 C346.45,401.27 346.94,407.14 347.16,419.06 L 347.50 436.61 L 350.93 443.36 C354.55,450.50 359.23,455.36 364.65,457.63 C366.97,458.59 372.59,459.00 383.73,459.00 C399.02,459.00 399.56,459.07 400.93,461.25 C401.98,462.91 402.46,468.45 402.78,482.50 C403.09,496.61 403.57,502.08 404.62,503.75 L 406.05 506.00 L 457.87 506.00 C509.26,506.00 509.71,505.98 511.60,503.90 ZM 1024.33 494.12 C1026.77,491.67 1026.71,490.17 1023.53,475.00 C1022.09,468.12 1020.05,457.77 1019.00,452.00 C1017.94,446.23 1016.80,440.53 1016.45,439.34 C1015.89,437.44 1016.91,436.62 1025.07,432.41 C1054.79,417.06 1079.23,387.77 1089.13,355.66 C1090.85,350.07 1092.44,345.30 1092.66,345.06 C1092.88,344.81 1096.19,344.28 1100.01,343.87 C1118.18,341.93 1132.87,327.49 1136.15,308.34 C1137.14,302.54 1137.06,300.33 1135.61,293.83 C1131.55,275.64 1118.02,263.96 1099.16,262.39 C1094.55,262.01 1090.67,261.21 1090.49,260.60 C1083.36,236.92 1074.45,221.18 1059.20,205.35 C1044.91,190.52 1020.32,175.05 1000.50,168.43 C990.03,164.93 969.27,161.07 960.75,161.03 L 954.00 161.00 L 954.00 147.50 C954.00,136.88 954.29,134.00 955.34,134.00 C958.29,134.00 969.04,127.69 972.37,124.01 C977.24,118.62 979.69,113.46 981.03,105.75 C981.98,100.30 981.90,98.16 980.55,92.89 C976.08,75.43 963.01,65.94 945.19,67.22 C916.54,69.27 904.38,106.87 926.05,126.36 C928.97,128.98 933.16,131.39 937.37,132.88 L 944.06 135.24 L 943.78 147.87 L 943.50 160.50 L 933.50 161.18 C918.09,162.22 904.09,164.62 893.99,167.95 C853.40,181.33 818.23,215.77 806.82,253.33 L 804.50 260.98 L 800.30 260.99 C794.10,261.00 786.20,262.89 780.23,265.79 C769.83,270.83 759.92,284.78 758.47,296.43 C757.13,307.08 762.18,322.00 769.58,329.30 C776.97,336.58 789.47,342.00 798.93,342.00 L 803.50 342.01 L 806.40 352.75 C812.60,375.70 820.94,390.06 837.94,407.06 C848.68,417.81 863.96,428.95 874.80,433.95 L 880.11 436.39 L 879.46 440.45 C879.10,442.68 876.60,454.39 873.90,466.49 C868.51,490.67 868.12,494.34 870.75,496.01 C872.01,496.81 893.36,496.97 947.45,496.58 C1019.68,496.06 1022.47,495.97 1024.33,494.12 ZM 324.35 473.25 C339.70,458.76 341.91,455.71 340.64,450.75 C340.32,449.51 335.53,443.44 329.98,437.25 C320.42,426.58 319.70,426.00 316.02,426.00 C311.83,426.00 309.00,428.01 309.00,430.98 C309.00,432.01 312.34,435.81 316.55,439.57 C322.01,444.46 323.73,446.56 322.80,447.18 C322.08,447.64 316.98,447.74 311.44,447.39 C300.40,446.69 298.71,447.33 297.35,452.74 C296.85,454.72 297.23,455.77 298.96,457.17 C300.84,458.69 303.05,459.00 312.13,459.00 L 323.04 459.00 L 316.02 465.98 C308.86,473.09 307.76,475.62 310.57,478.43 C313.66,481.52 316.85,480.32 324.35,473.25 ZM 206.13 315.35 C207.20,314.06 207.57,307.70 207.83,286.50 C208.13,262.26 207.98,259.13 206.51,257.65 C204.36,255.51 198.42,255.46 197.61,257.58 C197.27,258.45 197.00,271.70 197.00,287.03 C197.00,312.52 197.15,314.99 198.75,315.92 C201.38,317.45 204.59,317.20 206.13,315.35 ZM 285.05 247.00 C297.89,244.40 311.31,239.93 320.25,235.27 C328.65,230.89 338.34,220.94 340.21,214.76 C341.21,211.47 341.50,195.90 341.50,146.50 L 341.50 82.50 L 339.30 78.39 C334.02,68.51 318.65,59.12 300.33,54.58 C280.70,49.72 279.19,49.55 255.00,49.53 C234.10,49.50 230.29,49.76 220.59,51.84 C194.64,57.39 177.86,65.95 170.17,77.56 L 167.00 82.34 L 167.02 147.42 C167.05,222.03 166.41,216.75 176.51,225.75 C186.72,234.85 202.65,241.63 224.00,245.96 C246.03,250.43 266.40,250.78 285.05,247.00 ZM 485.54 215.58 C486.91,213.50 487.08,209.56 486.79,186.83 C486.47,162.05 486.32,160.17 484.15,154.92 C479.65,144.01 470.66,134.80 459.00,129.16 L 453.50 126.50 L 414.00 125.90 C392.27,125.56 374.32,125.23 374.09,125.15 C373.87,125.07 376.45,122.11 379.84,118.59 C386.89,111.24 387.93,107.31 383.57,104.45 C380.15,102.22 378.59,103.25 365.25,116.52 C350.35,131.36 350.34,130.43 365.57,145.25 C379.49,158.78 381.15,159.85 383.98,157.02 C387.40,153.60 386.55,150.43 380.50,144.09 C377.48,140.91 375.00,138.00 375.00,137.60 C375.00,137.21 391.76,137.03 412.25,137.19 L 449.50 137.50 L 455.13 140.26 C461.45,143.37 468.73,150.59 472.00,157.00 C474.78,162.46 475.94,174.05 475.97,196.92 C476.00,211.70 476.25,214.62 477.65,216.17 C479.99,218.75 483.64,218.47 485.54,215.58 ZM 806.00 193.00 C808.47,190.53 808.59,185.88 806.25,183.25 C805.29,182.16 800.45,178.89 795.50,175.98 C790.55,173.07 783.51,168.75 779.86,166.38 C766.69,157.84 762.43,157.12 759.98,163.05 C758.86,165.76 758.94,166.45 760.69,168.81 C761.78,170.29 765.20,173.07 768.28,175.00 C795.16,191.77 800.63,195.00 802.20,195.00 C803.19,195.00 804.90,194.10 806.00,193.00 ZM 842.00 152.00 C843.10,150.90 844.00,149.08 844.00,147.96 C844.00,146.70 839.02,140.72 831.08,132.43 C814.09,114.70 808.78,110.00 805.76,110.00 C802.49,110.00 799.67,113.30 799.67,117.12 C799.67,119.79 801.97,122.51 816.64,137.11 C831.50,151.89 834.02,154.00 836.81,154.00 C838.67,154.00 840.84,153.16 842.00,152.00 ZM 1066.04 152.24 C1067.44,151.28 1073.58,145.10 1079.68,138.50 C1085.79,131.90 1092.41,124.95 1094.39,123.05 C1097.03,120.54 1098.00,118.77 1098.00,116.49 C1098.00,112.16 1095.90,109.67 1092.23,109.67 C1089.65,109.67 1087.58,111.35 1078.79,120.58 C1056.82,143.67 1055.40,145.36 1055.53,148.18 C1055.78,153.80 1060.90,155.77 1066.04,152.24 ZM 813.34 641.07 C811.60,640.01 809.95,638.32 809.66,637.32 C806.00,624.36 809.92,614.00 818.49,614.00 C820.49,614.00 823.04,614.49 824.15,615.08 C829.03,617.69 830.77,631.58 827.00,637.77 C823.77,643.06 818.64,644.30 813.34,641.07 ZM 860.51 623.02 C860.18,622.48 860.44,621.02 861.08,619.77 C863.46,615.18 865.20,614.00 869.57,614.00 C875.24,614.00 876.80,614.71 878.54,618.07 C881.42,623.64 880.93,624.00 870.56,624.00 C865.37,624.00 860.85,623.56 860.51,623.02 ZM 271.75 618.43 C271.34,618.01 271.00,613.47 271.00,608.33 L 271.00 599.00 L 278.55 599.00 C285.22,599.00 286.37,599.28 288.55,601.45 C291.94,604.85 291.98,611.75 288.62,615.65 C286.54,618.08 285.39,618.47 279.37,618.80 C275.59,619.01 272.16,618.85 271.75,618.43 ZM 330.00 626.33 C330.00,624.41 337.44,603.00 338.11,603.00 C338.76,603.00 346.00,624.47 346.00,626.39 C346.00,626.73 342.40,627.00 338.00,627.00 C333.60,627.00 330.00,626.70 330.00,626.33 ZM 759.17 617.75 C760.79,612.66 762.58,607.00 763.14,605.16 C763.69,603.32 764.36,602.02 764.61,602.28 C764.87,602.54 766.81,608.20 768.92,614.87 L 772.76 627.00 L 764.48 627.00 L 756.20 627.00 L 759.17 617.75 ZM 1087.90 615.55 C1089.91,609.26 1091.83,603.83 1092.17,603.49 C1092.51,603.16 1094.60,608.31 1096.82,614.94 L 1100.85 627.00 L 1092.55 627.00 L 1084.24 627.00 L 1087.90 615.55 ZM 160.14 495.67 C159.29,494.64 159.05,475.37 159.24,421.39 L 159.50 348.50 L 190.00 348.00 C206.77,347.73 228.71,347.67 238.74,347.87 L 256.98 348.24 L 264.20 355.63 C276.78,368.52 275.55,359.90 275.16,432.49 C274.97,467.15 274.60,495.73 274.33,496.00 C274.06,496.27 248.51,496.63 217.57,496.78 C170.46,497.02 161.11,496.84 160.14,495.67 ZM 227.17 477.35 C229.01,475.68 229.51,472.50 228.39,469.58 C227.86,468.20 224.78,468.00 204.09,468.00 C178.64,468.00 178.00,468.13 178.00,473.14 C178.00,478.51 180.18,479.00 203.89,479.00 C222.45,479.00 225.59,478.78 227.17,477.35 ZM 253.36 446.49 C255.60,444.26 256.25,441.33 255.02,439.04 C253.95,437.05 253.13,437.00 217.79,437.00 C185.57,437.00 181.46,437.18 179.83,438.65 C177.58,440.69 177.46,444.32 179.57,446.43 C181.89,448.75 251.05,448.81 253.36,446.49 ZM 253.38 415.71 C254.67,414.77 255.06,413.35 254.82,410.46 L 254.50 406.50 L 218.12 406.24 C193.95,406.06 181.31,406.32 180.48,407.02 C178.26,408.86 178.07,413.07 180.12,415.12 C181.89,416.89 184.05,417.00 216.81,417.00 C243.65,417.00 252.02,416.70 253.38,415.71 ZM 254.00 385.00 C256.57,382.43 256.54,379.54 253.92,376.92 C251.88,374.88 251.17,374.85 216.57,375.17 C178.55,375.53 178.00,375.61 178.00,380.79 C178.00,382.20 178.74,384.17 179.65,385.17 C181.20,386.88 183.68,387.00 216.65,387.00 C250.67,387.00 252.08,386.92 254.00,385.00 ZM 415.05 493.56 C414.27,492.62 413.65,486.01 413.29,474.81 C412.43,448.41 412.71,448.69 387.48,448.00 C366.73,447.43 366.87,447.49 361.25,438.06 C358.60,433.61 358.52,433.01 358.02,413.83 C357.51,394.72 357.43,394.08 355.08,391.58 C352.72,389.08 352.28,389.00 340.33,389.00 C332.94,389.00 328.00,388.61 328.00,388.02 C328.00,387.48 329.52,384.67 331.37,381.77 C333.22,378.87 338.79,369.52 343.75,361.00 L 352.75 345.50 L 353.34 325.00 C354.19,295.78 356.36,289.03 369.40,275.25 C384.66,259.11 404.28,250.40 430.94,247.92 C456.88,245.50 481.21,250.96 499.66,263.34 C519.94,276.95 531.11,293.01 535.55,314.93 C537.76,325.86 537.09,344.81 534.06,356.92 C531.73,366.23 530.35,369.24 517.76,392.50 C512.31,402.56 508.09,411.84 506.38,417.50 C503.73,426.28 503.65,427.29 503.08,459.50 C502.76,477.65 502.14,493.06 501.69,493.75 C501.06,494.72 491.32,495.00 458.56,495.00 C422.91,495.00 416.06,494.77 415.05,493.56 ZM 472.58 401.91 C474.22,400.10 474.44,398.47 474.20,389.78 C473.88,378.36 472.78,374.99 466.84,367.29 C462.01,361.04 452.14,355.62 442.50,353.94 C431.50,352.03 427.48,350.22 422.59,344.99 C420.07,342.29 418.00,339.66 418.00,339.14 C418.00,338.62 419.24,337.74 420.75,337.19 C422.26,336.63 426.61,335.03 430.41,333.62 C443.38,328.82 455.25,329.43 463.21,335.32 L 466.17 337.50 L 468.66 334.61 C473.51,328.97 469.38,323.45 457.63,319.84 C448.23,316.96 439.82,317.69 426.00,322.61 C412.37,327.46 402.26,327.91 394.61,324.00 C387.75,320.50 385.00,316.57 385.00,310.28 C385.00,299.15 393.27,289.00 402.33,289.00 C403.65,289.00 406.42,290.35 408.50,292.00 C413.08,295.64 414.47,295.73 416.57,292.53 C417.73,290.76 418.00,288.96 417.53,286.17 C417.02,283.15 417.27,281.87 418.65,280.50 C424.77,274.37 438.98,274.62 444.29,280.94 C445.62,282.52 447.01,285.67 447.37,287.94 C447.87,291.02 448.67,292.35 450.55,293.21 C452.85,294.25 453.48,293.96 457.79,289.79 C463.64,284.13 465.81,283.00 470.86,283.00 C475.36,283.00 482.35,287.58 484.97,292.25 C486.42,294.83 486.34,295.05 482.88,298.21 C478.25,302.46 477.09,305.86 479.63,307.72 C480.66,308.47 482.51,308.84 483.75,308.53 C489.79,307.01 495.15,306.82 498.03,308.01 C501.77,309.56 504.89,315.24 505.68,321.98 C506.54,329.17 505.33,333.63 501.33,338.06 C498.03,341.71 497.37,342.00 492.46,342.00 C488.90,342.00 486.61,342.53 485.53,343.61 C484.05,345.10 484.05,345.44 485.59,347.86 C486.51,349.31 488.18,351.51 489.30,352.74 C492.31,356.07 490.35,359.60 483.98,362.29 C476.89,365.29 476.01,370.40 482.06,373.53 C484.67,374.88 485.37,374.87 488.72,373.47 C495.55,370.62 501.00,363.37 501.00,357.13 C501.00,354.83 502.33,352.91 507.02,348.40 C510.40,345.15 514.19,340.27 515.66,337.26 C518.00,332.48 518.22,331.11 517.72,324.51 C516.73,311.40 511.10,302.15 500.97,296.99 C498.09,295.52 497.00,294.33 497.00,292.68 C497.00,289.59 492.21,282.25 487.49,278.12 C479.22,270.87 469.15,269.01 460.62,273.16 L 456.18 275.31 L 451.92 271.66 C445.63,266.28 438.00,263.70 430.00,264.25 C422.14,264.79 413.40,268.64 409.23,273.39 C406.72,276.25 405.54,276.76 400.34,277.24 C389.38,278.23 382.36,283.73 376.75,295.71 C374.31,300.93 373.81,303.28 373.83,309.37 C373.85,313.53 374.50,318.27 375.33,320.26 C379.06,329.17 390.53,337.17 401.56,338.55 C406.09,339.12 406.92,339.56 407.46,341.69 C408.36,345.29 412.35,351.26 416.70,355.54 C421.79,360.54 428.92,363.73 436.91,364.58 C444.84,365.43 450.44,367.69 455.41,372.06 C460.75,376.74 462.65,381.23 463.45,391.06 C464.20,400.31 464.47,401.09 467.50,402.81 C470.21,404.34 470.41,404.30 472.58,401.91 ZM 881.34 485.74 C881.08,485.32 882.76,475.31 885.07,463.49 C888.48,446.07 889.58,442.00 890.89,442.03 C891.77,442.04 896.33,442.99 901.00,444.14 C908.54,446.00 913.39,446.29 943.86,446.72 C979.81,447.22 988.55,446.64 1000.37,442.96 C1003.69,441.93 1006.53,441.19 1006.66,441.33 C1006.88,441.55 1012.89,470.23 1014.92,480.73 C1015.72,484.91 1015.70,484.97 1012.62,485.48 C1007.59,486.33 881.85,486.57 881.34,485.74 ZM 937.00 436.05 C912.96,435.35 907.79,434.72 895.26,430.95 C873.27,424.34 849.88,407.57 834.84,387.63 C826.94,377.17 818.69,360.20 815.33,347.50 C812.89,338.26 812.65,335.58 812.24,312.15 C811.59,275.06 814.24,260.94 826.22,237.50 C836.73,216.94 855.97,198.60 879.52,186.71 C889.43,181.70 893.11,180.29 903.93,177.36 C912.64,175.00 915.92,174.70 940.50,174.02 C955.37,173.61 970.42,173.68 974.00,174.16 C1031.01,181.90 1076.99,227.08 1083.10,281.34 C1083.74,287.02 1084.03,301.36 1083.80,315.34 L 1083.41 339.50 L 1079.15 352.00 C1072.10,372.74 1062.03,389.01 1048.02,402.32 C1033.66,415.95 1023.17,422.84 1007.56,428.90 C988.64,436.24 978.61,437.26 937.00,436.05 ZM 1024.30 360.16 C1042.28,352.91 1056.61,337.86 1062.55,320.00 C1065.04,312.55 1065.06,295.83 1062.59,287.50 C1056.74,267.69 1041.03,251.52 1023.08,246.83 C1017.18,245.29 1009.46,245.11 948.86,245.06 C883.02,245.00 881.03,245.06 874.36,247.09 C849.51,254.66 832.00,277.00 832.00,301.12 C832.00,325.08 843.98,345.15 864.64,355.79 C879.00,363.19 875.61,362.92 951.00,362.70 L 1018.50 362.50 L 1024.30 360.16 ZM 1095.00 333.34 C1095.03,320.36 1094.20,276.08 1093.91,275.00 C1093.31,272.81 1098.89,272.54 1105.41,274.43 C1120.70,278.88 1129.84,297.85 1124.07,313.15 C1121.30,320.48 1115.25,327.26 1108.71,330.37 C1103.23,332.98 1095.00,334.76 1095.00,333.34 ZM 788.50 329.90 C777.07,326.38 769.99,314.95 770.01,300.07 C770.03,284.82 780.24,274.32 796.74,272.57 L 802.97 271.90 L 802.24 276.70 C801.83,279.34 801.50,292.64 801.50,306.25 L 801.50 331.00 L 796.50 330.91 C793.75,330.86 790.15,330.40 788.50,329.90 ZM 940.01 120.41 C932.12,116.99 927.61,109.76 927.55,100.42 C927.46,88.84 935.75,80.05 946.78,80.02 C958.45,79.98 966.82,86.94 968.49,98.08 C970.35,110.48 960.46,121.99 948.00,121.94 C945.53,121.93 941.93,121.24 940.01,120.41 ZM 239.00 237.91 C217.24,235.70 195.82,228.14 185.81,219.13 C178.18,212.28 178.00,211.64 178.00,191.05 C178.00,181.12 178.17,173.00 178.38,173.00 C178.58,173.00 183.87,175.42 190.13,178.39 C222.59,193.77 259.60,196.51 298.80,186.42 C308.57,183.91 320.62,178.83 326.14,174.90 C327.77,173.74 329.43,173.09 329.81,173.47 C330.19,173.85 330.65,181.72 330.83,190.95 C331.16,207.27 331.09,207.88 328.63,212.75 C323.36,223.15 313.00,228.42 283.97,235.47 C271.74,238.43 253.80,239.41 239.00,237.91 ZM 236.00 180.57 C208.86,176.65 188.57,168.70 181.25,159.11 L 178.00 154.84 L 178.00 134.84 C178.00,123.84 178.34,114.99 178.75,115.17 C179.16,115.36 182.65,117.14 186.50,119.13 C208.76,130.63 236.52,135.66 267.64,133.82 C289.34,132.53 313.76,125.72 326.23,117.47 C328.28,116.11 330.13,115.00 330.35,115.00 C331.07,115.00 331.11,131.45 330.41,143.93 L 329.71 156.36 L 325.83 160.57 C321.50,165.27 312.26,170.44 301.05,174.44 C284.32,180.41 254.45,183.22 236.00,180.57 ZM 237.23 122.90 C226.07,121.60 212.54,118.19 201.35,113.86 C192.71,110.51 190.22,109.00 184.60,103.70 C178.60,98.05 178.00,97.12 178.01,93.49 C178.02,81.27 185.60,73.78 204.48,67.32 C222.44,61.18 254.38,58.58 277.00,61.43 C295.14,63.71 301.79,65.34 311.41,69.84 C324.98,76.21 330.93,83.19 330.98,92.82 C331.00,96.72 330.45,97.73 325.43,102.99 C318.37,110.39 308.98,115.13 293.82,118.96 C275.69,123.53 255.04,124.97 237.23,122.90 ZM 878.97 350.14 C858.77,343.62 845.86,329.17 842.83,309.68 C840.03,291.61 847.27,275.16 862.65,264.68 C876.05,255.54 871.41,256.00 950.34,256.00 L 1019.73 256.00 L 1026.76 259.52 C1046.20,269.24 1057.80,293.34 1053.03,314.11 C1050.06,327.04 1038.41,341.22 1025.55,347.57 L 1017.61 351.50 L 951.05 351.71 C889.58,351.90 884.08,351.78 878.97,350.14 ZM 909.68 325.44 C914.62,322.55 919.57,316.84 921.07,312.28 L 922.16 309.00 L 948.06 309.00 L 973.96 309.00 L 975.90 312.81 C978.36,317.62 984.31,323.52 989.50,326.28 C998.36,330.99 1011.47,327.93 1018.97,319.39 C1023.91,313.75 1025.31,309.57 1024.77,302.00 C1023.70,287.15 1014.00,278.23 1000.00,279.24 C989.06,280.02 979.71,286.02 975.81,294.75 L 973.91 299.00 L 948.20 299.00 L 922.50 298.99 L 920.59 294.35 C917.86,287.71 911.52,281.47 906.00,279.99 C900.47,278.50 890.48,279.18 886.32,281.33 C875.09,287.14 869.62,299.22 872.96,310.85 C875.03,318.09 883.82,325.85 892.50,328.11 C897.21,329.34 905.11,328.11 909.68,325.44 ZM 887.44 313.70 C882.41,308.67 881.30,305.29 882.90,299.94 C884.61,294.25 889.71,290.70 896.85,290.26 C903.51,289.85 906.53,291.18 909.72,295.91 C916.10,305.38 908.63,318.00 896.64,318.00 C892.20,318.00 891.33,317.60 887.44,313.70 ZM 994.00 317.29 C991.67,316.44 987.95,312.78 986.40,309.80 C983.57,304.36 985.11,298.02 990.49,293.00 C992.79,290.85 994.10,290.50 999.83,290.50 C1005.19,290.50 1007.13,290.95 1009.72,292.80 C1016.95,297.96 1016.20,308.61 1008.17,314.71 C1004.80,317.27 1002.92,317.98 999.67,317.92 C997.38,317.88 994.83,317.60 994.00,317.29 Z" fill="rgb(240,240,240)"/>
</g>
</svg>